<?xml version="1.0" standalone="no"?>
<!DOCTYPE svg PUBLIC "-//W3C//DTD SVG 1.1//EN" "http://www.w3.org/Graphics/SVG/1.1/DTD/svg11.dtd" >
<svg xmlns="http://www.w3.org/2000/svg">
<metadata>
Created by FontForge 20120731 at Mon Jul  4 16:17:42 2016
 By admin
</metadata>
<defs>
<font id="pc_icon_font" horiz-adv-x="1024" >
  <font-face 
    font-family="pc_icon_font"
    font-weight="500"
    font-stretch="normal"
    units-per-em="1024"
    panose-1="2 0 6 3 0 0 0 0 0 0"
    ascent="896"
    descent="-128"
    x-height="792"
    bbox="7 -208 1019 856"
    underline-thickness="50"
    underline-position="-100"
    unicode-range="U+0078-E688"
  />
<missing-glyph horiz-adv-x="374" 
d="M34 0v682h272v-682h-272zM68 34h204v614h-204v-614z" />
    <glyph glyph-name=".notdef" horiz-adv-x="374" 
d="M34 0v682h272v-682h-272zM68 34h204v614h-204v-614z" />
    <glyph glyph-name=".null" horiz-adv-x="0" 
 />
    <glyph glyph-name="nonmarkingreturn" horiz-adv-x="341" 
 />
    <glyph glyph-name="x" unicode="x" horiz-adv-x="1001" 
d="M281 543q-27 -1 -53 -1h-83q-18 0 -36.5 -6t-32.5 -18.5t-23 -32t-9 -45.5v-76h912v41q0 16 -0.5 30t-0.5 18q0 13 -5 29t-17 29.5t-31.5 22.5t-49.5 9h-133v-97h-438v97zM955 310v-52q0 -23 0.5 -52t0.5 -58t-10.5 -47.5t-26 -30t-33 -16t-31.5 -4.5q-14 -1 -29.5 -0.5
t-29.5 0.5h-32l-45 128h-439l-44 -128h-29h-34q-20 0 -45 1q-25 0 -41 9.5t-25.5 23t-13.5 29.5t-4 30v167h911zM163 247q-12 0 -21 -8.5t-9 -21.5t9 -21.5t21 -8.5q13 0 22 8.5t9 21.5t-9 21.5t-22 8.5zM316 123q-8 -26 -14 -48q-5 -19 -10.5 -37t-7.5 -25t-3 -15t1 -14.5
t9.5 -10.5t21.5 -4h37h67h81h80h64h36q23 0 34 12t2 38q-5 13 -9.5 30.5t-9.5 34.5q-5 19 -11 39h-368zM336 498v228q0 11 2.5 23t10 21.5t20.5 15.5t34 6h188q31 0 51.5 -14.5t20.5 -52.5v-227h-327z" />
    <glyph glyph-name="uniE600" unicode="&#xe600;" 
d="M944.5 600q-16.5 17 -40 17t-39.5 -17l-352 -356l-352 356q-17 17 -40 17t-39.5 -17t-16.5 -40.5t16 -39.5l390 -394q17 -17 42 -16q25 -1 42 16l389 394q17 16 17 39.5t-16.5 40.5z" />
    <glyph glyph-name="uniE601" unicode="&#xe601;" 
d="M267 422l243 -243l243 243h-486z" />
    <glyph glyph-name="uniE602" unicode="&#xe602;" 
d="M526 -117l451 496h-270v330h-361v-330h-270z" />
    <glyph glyph-name="uniE603" unicode="&#xe603;" 
d="M76 353h901v-98h-901v98z" />
    <glyph glyph-name="uniE604" unicode="&#xe604;" 
d="M765 722.5q17 -16.5 17 -40t-17 -39.5l-356 -352l356 -353q17 -16 17 -39t-17 -39.5t-40.5 -16.5t-39.5 16l-394 390q-17 17 -16 42q-1 25 16 42l394 389q16 17 39.5 17t40.5 -16.5z" />
    <glyph glyph-name="uniE605" unicode="&#xe605;" 
d="M674 341v-82h81v82h-81zM511 504v-82h81v82h-81zM348 667v-82h81v82h-81zM266 748v-81h82v81h-82zM511 96h81v82h-81v-82zM348 -67h81v82h-81v-82zM266 -148h82v81h-82v-81zM592 178h82v81h-82v-81zM429 15h82v81h-82v-81zM429 585v-81h82v81h-82zM592 422v-81h82v81h-82
z" />
    <glyph glyph-name="uniE606" unicode="&#xe606;" 
d="M291.5 -128.5q-16.5 16.5 -16.5 39.5t17 39l356 353l-356 352q-17 16 -17 39.5t16.5 40t40 16.5t40.5 -17l393 -389q18 -17 17 -42q1 -25 -17 -42l-393 -390q-17 -16 -40.5 -16t-40 16.5z" />
    <glyph glyph-name="uniE607" unicode="&#xe607;" 
d="M363 276v82h-81v-82h81zM526 113v82h-81v-82h81zM689 -50v82h-81v-82h81zM771 -131v81h-82v-81h82zM526 520h-81v-81h81v81zM689 683h-81v-81h81v81zM771 765h-82v-82h82v82zM445 439h-82v-81h82v81zM608 602h-82v-82h82v82zM608 32v81h-82v-81h82zM445 195v81h-82v-81
h82z" />
    <glyph glyph-name="uniE608" unicode="&#xe608;" 
d="M511 718l-450 -496h270v-330h360v330h270z" />
    <glyph glyph-name="uniE609" unicode="&#xe609;" 
d="M769 186l-243 243l-244 -243h487z" />
    <glyph glyph-name="uniE60A" unicode="&#xe60a;" 
d="M944.5 114.5q-16.5 -16.5 -40 -16.5t-39.5 16l-352 356l-352 -356q-17 -16 -40 -16t-39.5 16.5t-16.5 40t16 40.5l390 393q17 18 42 16q25 2 42 -16l389 -393q17 -17 17 -40.5t-16.5 -40z" />
    <glyph glyph-name="uniE60B" unicode="&#xe60b;" 
d="M932 25l-405 -167q-8 -4 -16.5 -4t-16.5 4l-405 167q-26 11 -26 39v644q0 17 12.5 29.5t29.5 12.5q8 0 16 -4v0l390 -161l389 161v0q8 4 16 4q18 0 30 -12.5t12 -29.5v-644q0 -28 -26 -39zM447 494l-320 128v-512l320 -128v512zM894 622l-319 -128v-512l319 128v512z
M619 452l154 70q8 4 17 4q18 0 30 -12.5t12 -29.5q0 -27 -24 -38l-154 -70q-8 -4 -17 -4q-18 0 -30 12t-12 30q0 27 24 38zM619 298l154 70q8 4 17 4q18 0 30 -12.5t12 -29.5q0 -27 -24 -38l-154 -70q-8 -4 -17 -4q-18 0 -30 12.5t-12 29.5q0 27 24 38zM619 144l154 70
q8 4 17 4q18 0 30 -12.5t12 -29.5q0 -27 -24 -38l-154 -70q-8 -4 -17 -4q-18 0 -30 12.5t-12 29.5q0 27 24 38zM231 526q9 0 17 -4l154 -70q25 -11 25 -38q0 -18 -12.5 -30t-29.5 -12q-9 0 -18 4l-153 70q-25 11 -25 38q0 17 12.5 29.5t29.5 12.5zM231 372q9 0 17 -4
l154 -70q25 -11 25 -38q0 -17 -12.5 -29.5t-29.5 -12.5q-9 0 -18 4l-153 70q-25 11 -25 38q0 17 12.5 29.5t29.5 12.5zM231 218q9 0 17 -4l154 -70q25 -11 25 -38q0 -17 -12.5 -29.5t-29.5 -12.5q-9 0 -18 4l-153 70q-25 11 -25 38q0 17 12 29.5t30 12.5z" />
    <glyph glyph-name="uniE60C" unicode="&#xe60c;" 
d="M929 499l-481 -497q-18 -19 -44 -19t-44 19l-272 281q-18 19 -18 45.5t18.5 45.5t44.5 19t44 -19l227 -235l436 451q18 19 44 19t44.5 -19t18.5 -45.5t-18 -45.5z" />
    <glyph glyph-name="uniE60D" unicode="&#xe60d;" 
d="M959 -72l-357 357l356 356l-89 89l-356 -356l-360 360l-89 -89l360 -360l-357 -357l88 -89l358 358l357 -357z" />
    <glyph glyph-name="uniE60E" unicode="&#xe60e;" 
d="M768 598h-512q-79 0 -135 -49.5t-56 -119.5v-227q0 -70 56 -119t135 -49h512q79 0 135 49t56 119v227q0 70 -56 119.5t-135 49.5zM269 253q-34 0 -58 21t-24 51t24 51t58 21t57.5 -21t23.5 -51t-23.5 -51t-57.5 -21zM516 253q-34 0 -57.5 21t-23.5 51t23.5 51t57.5 21
t58 -21t24 -51t-24 -51t-58 -21zM752 253q-34 0 -57.5 21t-23.5 51t23.5 51t57.5 21t58 -21t24 -51t-24 -51t-58 -21z" />
    <glyph glyph-name="uniE60F" unicode="&#xe60f;" 
d="M887.5 539q-29.5 0 -50.5 -22t-21 -52q0 -15 5 -28l-187 -109l-97 195q17 10 27.5 27.5t10.5 38.5q0 31 -21 52.5t-51 21.5t-51 -21.5t-21 -52.5q0 -23 12.5 -41.5t32.5 -27.5l-100 -191l-176 101q8 16 8 34q0 31 -21.5 52.5t-51 21.5t-50.5 -21.5t-21 -52.5t21 -52.5
t51 -21.5q14 0 27 5l108 -278l462 -3l128 282q13 -5 27 -5q29 0 50.5 21.5t21.5 52.5t-21.5 52.5t-51 21.5zM273 -40h471v103h-471v-103z" />
    <glyph glyph-name="uniE610" unicode="&#xe610;" 
d="M903 322.5q-15 14.5 -35.5 14.5t-35.5 -15l-272 -271v648q0 20 -14.5 35t-35.5 15t-35.5 -15t-14.5 -35v-650l-274 273q-14 15 -35 15t-36 -14.5t-15 -35.5t15 -36l394 -393l29 29q8 5 14 14l351 350q15 15 15 36t-15 35.5z" />
    <glyph glyph-name="uniE611" unicode="&#xe611;" 
d="M433.5 212q10.5 -21 37.5 -21q26 0 37.5 22t15.5 62l21 229q4 32 4 62q0 52 -14.5 79.5t-57.5 27.5q-36 0 -57.5 -21.5t-21.5 -59.5q0 -29 5 -94l16 -222q4 -43 14.5 -64zM526 -10q23 18 23 51q0 28 -22.5 48.5t-54 20.5t-53 -20.5t-21.5 -48.5q0 -33 22.5 -51.5
t53.5 -18.5q30 0 52 19z" />
    <glyph glyph-name="uniE612" unicode="&#xe612;" 
d="M541 158v227q66 11 110 62t44 118q0 75 -54 129t-130 54t-130 -54t-54 -129q0 -67 43.5 -118t109.5 -62v-226q-88 -2 -163 -19.5t-124.5 -52.5t-49.5 -81q0 -47 53 -82.5t133 -52.5t171 -17q95 0 179.5 17t142 52.5t57.5 82.5q0 44 -50 78t-124.5 52t-163.5 22zM406 565
q0 43 30.5 73.5t74 30.5t74.5 -30.5t31 -73.5q0 -40 -27 -70t-67 -34q-5 2 -11 2t-12 -2q-40 4 -66.5 34t-26.5 70zM500 -85q-63 0 -120.5 9t-94.5 23t-59 30t-22 29q0 30 79.5 59.5t196.5 32.5v-92q0 -12 9 -21t21.5 -9t21.5 9t9 21v91q61 -3 114.5 -13.5t88 -24t54 -27.5
t19.5 -26q0 -16 -37 -37t-113.5 -37.5t-166.5 -16.5z" />
    <glyph glyph-name="uniE613" unicode="&#xe613;" 
d="M942 351l-398 333q-14 12 -32.5 12t-32.5 -12l-398 -333q-15 -13 -16.5 -33t12 -34.5t34 -16t36.5 11.5l25 21v-280q0 -50 31 -81.5t82 -31.5h121q21 0 35.5 14t14.5 34v226q0 10 7.5 17t17.5 7h61q10 0 17.5 -7t7.5 -17v-220q0 -21 15 -35q16 -19 36 -19h120
q51 0 82 31.5t31 81.5v280l25 -21q14 -12 33 -12q22 0 37 17q14 14 12.5 34t-16.5 33zM738 20q-4 -7 -7 -10.5t-16 -2.5t-34 13v170q0 50 -31 81.5t-82 31.5h-113q-51 0 -82 -31.5t-31 -81.5v-170q-5 0 -20.5 -3t-26 -3t-10.5 6v375l226 189l227 -189v-375z" />
    <glyph glyph-name="uniE614" unicode="&#xe614;" 
d="M512 -146q-91 0 -173.5 35.5t-142 95t-95 142t-35.5 173.5t35.5 173.5t95 142t142 95t173.5 35.5t173.5 -35.5t142 -95t95 -142t35.5 -173.5t-35.5 -173.5t-95 -142t-142 -95t-173.5 -35.5zM512 682q-104 0 -192 -51t-139 -139t-51 -192t51 -192t139 -139t192 -51t192 51
t139 139t51 192t-51 192t-139 139t-192 51zM512 508zM464 508q0 20 14 34t34 14t34 -14t14 -34t-14 -34t-34 -14t-34 14t-14 34zM512 44q-13 0 -22.5 9.5t-9.5 22.5v288q0 13 9.5 22.5t22.5 9.5t22.5 -9.5t9.5 -22.5v-288q0 -13 -9.5 -22.5t-22.5 -9.5z" />
    <glyph glyph-name="uniE615" unicode="&#xe615;" 
d="M512 746q-91 0 -173.5 -35.5t-142 -95t-95 -142t-35.5 -173.5t35.5 -173.5t95 -142t142 -95t173.5 -35.5t173.5 35.5t142 95t95 142t35.5 173.5t-35.5 173.5t-95 142t-142 95t-173.5 35.5zM544 76q0 -13 -9.5 -22.5t-22.5 -9.5t-22.5 9.5t-9.5 22.5v288q0 13 9.5 22.5
t22.5 9.5t22.5 -9.5t9.5 -22.5v-288zM512 460q-20 0 -34 14t-14 34t14 34t34 14t34 -14t14 -34t-14 -34t-34 -14z" />
    <glyph glyph-name="uniE616" unicode="&#xe616;" 
d="M510 -91q-14 0 -26 9q-87 55 -157 113.5t-113 107t-74.5 97.5t-46 83t-22 67t-8.5 47t0 25q1 96 72 164t171 68q63 0 116.5 -28.5t87.5 -77.5q33 49 87 77.5t116 28.5q100 0 171.5 -68t72.5 -164q0 -10 -0.5 -24.5t-8.5 -47t-22 -67t-45.5 -83t-74 -96.5t-112 -106.5
t-155.5 -113.5q-12 -11 -29 -11zM306 612q-67 0 -114.5 -45.5t-47.5 -109.5v-4q0 -5 0.5 -13.5t6.5 -34.5t18 -54.5t39 -71t64 -85t99 -95.5t139 -104q77 51 138.5 104t99 95.5t64.5 85t39 71t18 54.5t6.5 35t-0.5 13q0 67 -47.5 113t-114.5 46t-114.5 -45.5t-47.5 -109.5
q0 -17 -12 -28t-29 -11q-18 0 -29.5 11t-11.5 28q0 64 -48 109.5t-115 45.5z" />
    <glyph glyph-name="uniE617" unicode="&#xe617;" 
d="M526 -74q-15 0 -26 8q-87 56 -157 114.5t-113 107t-74.5 97t-46 83t-22 67.5t-8.5 47t0 25q0 96 71.5 163.5t171.5 67.5q63 0 116.5 -28t86.5 -77q34 49 87.5 77t116.5 28q100 0 171 -67.5t72 -163.5q1 -11 0 -25t-8.5 -46.5t-22 -67t-45.5 -83t-74 -96.5t-112 -106.5
t-156 -113.5q-12 -11 -28 -11z" />
    <glyph glyph-name="uniE618" unicode="&#xe618;" 
d="M855 129q-4 0 -7 -0.5t-5 -3t-3 -4t-1.5 -6t-0.5 -7t0.5 -8t0.5 -8.5v-120h-717v657h717v-119q0 -4 -1 -9q0 -8 1.5 -9.5t10.5 -1.5h5q16 0 27 12t11 28v119q0 17 -11 28.5t-27 11.5h-755q-16 0 -27 -11.5t-11 -28.5v-697q0 -16 11 -27.5t27 -11.5h755q16 0 27 11.5
t11 27.5v138q0 16 -11 27.5t-27 11.5zM921 443h-476q-54 0 -92.5 -41t-38.5 -99t38.5 -98.5t92.5 -40.5h476q15 0 26 11.5t11 27.5v200q0 16 -11 28t-26 12zM898 211h-477q-32 0 -32 92q0 17 0.5 28.5t3.5 27t10 23.5t18 8h477v-179zM507.5 276q10.5 0 18 8t7.5 19t-7.5 19
t-18 8t-18 -8t-7.5 -19t7.5 -19t18 -8z" />
    <glyph glyph-name="uniE619" unicode="&#xe619;" 
d="M767 611h-511q-79 0 -135 -56t-56 -136v-257q0 -79 56 -135t135 -56h511q79 0 135 56t56 135v257q0 80 -56 136t-135 56zM411 145v299l305 -151z" />
    <glyph glyph-name="uniE61A" unicode="&#xe61a;" 
d="M512 28zM464 28q0 20 14 34t34 14t34 -14t14 -34t-14 -34t-34 -14t-34 14t-14 34zM512 -148q-185 0 -316.5 131.5t-131.5 316.5t131.5 316.5t316.5 131.5t316.5 -131.5t131.5 -316.5t-131.5 -316.5t-316.5 -131.5zM512 684q-104 0 -192.5 -51.5t-140 -140t-51.5 -192.5
t51.5 -192.5t140 -140t192.5 -51.5t192.5 51.5t140 140t51.5 192.5t-51.5 192.5t-140 140t-192.5 51.5zM512 138q-13 0 -22.5 9.5t-9.5 22.5v54q0 25 13 50t25.5 39.5t36.5 38.5q18 18 26.5 27t17.5 23t9 24q0 40 -28 68.5t-68 28.5t-68 -27.5t-28 -67.5q0 -13 -9.5 -22.5
t-22.5 -9.5t-22.5 9.5t-9.5 22.5q0 66 47 112.5t113 46.5t113 -47t47 -114q0 -22 -12 -45.5t-24 -37t-35 -36.5q-19 -19 -28.5 -29t-19 -26t-9.5 -28v-54q0 -13 -9.5 -22.5t-22.5 -9.5z" />
    <glyph glyph-name="uniE61B" unicode="&#xe61b;" 
d="M512 748q-185 0 -316.5 -131.5t-131.5 -316.5t131.5 -316.5t316.5 -131.5t316.5 131.5t131.5 316.5t-131.5 316.5t-316.5 131.5zM512 -20q-20 0 -34 14t-14 34t14 34t34 14t34 -14t14 -34t-14 -34t-34 -14zM601 307q-19 -19 -28.5 -29t-19 -26t-9.5 -28v-54
q0 -13 -9.5 -22.5t-22.5 -9.5t-22.5 9.5t-9.5 22.5v54q0 25 13 50t25.5 39.5t36.5 38.5q18 17 26.5 26.5t17.5 23.5t9 24q0 40 -28 68.5t-68 28.5t-68 -27.5t-28 -67.5q0 -13 -9.5 -22.5t-22.5 -9.5t-22.5 9.5t-9.5 22.5q0 66 47 112.5t113 46.5t113 -47t47 -114
q0 -22 -12 -45.5t-24 -37t-35 -36.5z" />
    <glyph glyph-name="uniE61C" unicode="&#xe61c;" 
d="M708 452.5q0 -17.5 16.5 -33.5t33.5 -16h149q48 0 50 68v168q0 18 -16.5 40t-33.5 22t-33.5 -16.5t-16.5 -33.5v-50q-58 82 -143 115.5t-205 33.5q-91 0 -173.5 -35t-142.5 -95t-95.5 -143t-35.5 -174t35.5 -174t95.5 -142.5t142.5 -95t173.5 -35.5t174 35.5t143 95
t95.5 142.5t35.5 174q0 17 -16.5 33.5t-33.5 16.5t-33.5 -16.5t-16.5 -33.5q0 -150 -98.5 -249t-249 -99t-249.5 99t-99 249.5t99 249t249 98.5q92 0 170.5 -39.5t128.5 -109.5h-50q-17 0 -33.5 -16t-16.5 -33.5zM460 502zM559 303zM559 303v199q0 17 -16 33.5t-33.5 16.5
t-33.5 -16.5t-16 -33.5v-173l-111 -77q-15 -8 -22.5 -29.5t0 -36.5t29 -21.5t37.5 1.5l126 88l1 1q1 0 1 1q15 5 26.5 19t11.5 28zM520 255l-1 -1zM393 166z" />
    <glyph glyph-name="uniE61D" unicode="&#xe61d;" 
d="M894 468q0 4 -1 8q-2 4 -7 6q-2 2 -5 3q-8 3 -14 -2q-4 -2 -7 -3l-31 -16q-46 89 -130.5 141.5t-185.5 52.5q-107 0 -195 -59.5t-131 -157.5l-1 -1q0 -1 -1 -2l-1 -2l1 -1l-1 -5q0 -11 8 -19t19 -8t19 8t8 19q41 81 112.5 128t161.5 47q89 0 161 -43t112 -118l-38 -23
q-4 -2 -8 -5q-9 -2 -12 -11q-2 -8 2 -16t12 -12l111 -50q2 -2 5 -3q6 -3 12 1q6 3 8 10q1 2 1 6l16 116q1 5 0 11zM839 173h-1q1 5 1 6q0 11 -8 18.5t-19.5 7.5t-19.5 -7.5t-8 -18.5v-1v1q-40 -81 -112 -128t-161 -47t-161 42.5t-113 118.5l39 23q4 2 7 5q10 1 12 11
q3 7 -1 15.5t-12 12.5l-111 50q-3 2 -5 3q-6 2 -12 -1q-7 -3 -9 -10q-1 -3 -1 -6l-16 -116q-1 -6 1 -12q-1 -4 1 -7q2 -4 6 -6q3 -3 5 -4q8 -3 15 3q3 1 6 3l31 16q47 -89 131 -142t185 -53q108 0 196 59.5t131 157.5q0 1 0.5 1t0.5 1l1 1q1 2 1 3z" />
    <glyph glyph-name="uniE61E" unicode="&#xe61e;" 
d="M512 -146q-90 0 -171.5 33.5t-145 97t-97.5 145t-34 170.5t34 170.5t97.5 145t145 97t171.5 33.5t171.5 -33.5t145 -97t97.5 -145t34 -170.5t-34 -170.5t-97.5 -145t-145 -97t-171.5 -33.5zM512 682q-77 0 -147 -29t-124.5 -83t-83.5 -123.5t-29 -146.5t29 -146.5
t83.5 -123.5t124.5 -83t147 -29t147 29t124.5 83t83.5 124t29 146.5t-29 146t-83.5 123.5t-124.5 83t-147 29zM736 332h-192v192q0 13 -9.5 22.5t-22.5 9.5t-22.5 -9.5t-9.5 -22.5v-192h-192q-13 0 -22.5 -9.5t-9.5 -22.5t9.5 -22.5t22.5 -9.5h192v-192q0 -13 9.5 -22.5
t22.5 -9.5t22.5 9.5t9.5 22.5v192h192q13 0 22.5 9.5t9.5 22.5t-9.5 22.5t-22.5 9.5z" />
    <glyph glyph-name="uniE61F" unicode="&#xe61f;" 
d="M828.5 615.5q-63.5 63.5 -145 97t-171.5 33.5t-171.5 -33.5t-145 -97t-97.5 -145t-34 -170.5t34 -170.5t97.5 -145t145 -97t171.5 -33.5t171.5 33.5t145 97t97.5 145t34 170.5t-34 170.5t-97.5 145zM736 268h-192v-192q0 -13 -9.5 -22.5t-22.5 -9.5t-22.5 9.5t-9.5 22.5
v192h-192q-13 0 -22.5 9.5t-9.5 22.5t9.5 22.5t22.5 9.5h192v192q0 13 9.5 22.5t22.5 9.5t22.5 -9.5t9.5 -22.5v-192h192q13 0 22.5 -9.5t9.5 -22.5t-9.5 -22.5t-22.5 -9.5z" />
    <glyph glyph-name="uniE620" unicode="&#xe620;" 
d="M512 -148q-185 0 -316.5 131.5t-131.5 316.5t131.5 316.5t316.5 131.5t316.5 -131.5t131.5 -316.5t-131.5 -316.5t-316.5 -131.5zM512 684q-104 0 -192.5 -51.5t-140 -140t-51.5 -192.5t51.5 -192.5t140 -140t192.5 -51.5t192.5 51.5t140 140t51.5 192.5t-51.5 192.5
t-140 140t-192.5 51.5zM727 418.5q-9 9.5 -22.5 9.5t-22.5 -9l-234 -236l-103 106q-9 9 -22.5 9.5t-23 -9t-9.5 -22.5t9 -23l126 -129h1v-1q1 -1 7 -4q0 -1 1 -1.5t2 -1.5q6 -2 12 -2t12 2q1 1 2 1.5t2 1.5q5 3 7 4v1l256 259q10 9 9.5 22t-9.5 22.5z" />
    <glyph glyph-name="uniE621" unicode="&#xe621;" 
d="M512 746q-91 0 -173.5 -35.5t-142 -95t-95 -142t-35.5 -173.5t35.5 -173.5t95 -142t142 -95t173.5 -35.5t173.5 35.5t142 95t95 142t35.5 173.5t-35.5 173.5t-95 142t-142 95t-173.5 35.5zM727 374l-256 -259v-1q-2 -1 -7 -4q-1 -1 -2 -1.5t-2 -1.5q-6 -2 -12 -2t-12 2
q-1 1 -2 1.5t-1 1.5q-6 3 -7 4v1h-1l-126 129q-9 10 -9 23t9.5 22.5t23 9t22.5 -9.5l103 -106l234 236q9 9 22.5 9t22.5 -9t9.5 -22.5t-9.5 -22.5z" />
    <glyph glyph-name="uniE622" unicode="&#xe622;" 
d="M512 -148q-185 0 -316.5 131.5t-131.5 316.5t131.5 316.5t316.5 131.5t316.5 -131.5t131.5 -316.5t-131.5 -316.5t-316.5 -131.5zM512 684q-104 0 -192.5 -51.5t-140 -140t-51.5 -192.5t51.5 -192.5t140 -140t192.5 -51.5t192.5 51.5t140 140t51.5 192.5t-51.5 192.5
t-140 140t-192.5 51.5zM557 299l138 136q10 10 10 23t-9.5 22.5t-22.5 9.5t-23 -9l-138 -137l-137 137q-9 9 -22 9t-22.5 -9t-9.5 -22.5t9 -22.5l136 -137l-137 -136q-9 -9 -9.5 -22.5t9 -23t22.5 -9.5q14 0 23 10l138 136l138 -140q10 -9 23 -9t22.5 9.5t9.5 22.5t-9 23z
" />
    <glyph glyph-name="uniE623" unicode="&#xe623;" 
d="M512 748q-185 0 -316.5 -131.5t-131.5 -316.5t131.5 -316.5t316.5 -131.5t316.5 131.5t131.5 316.5t-131.5 316.5t-316.5 131.5zM695 162q9 -9 9 -22.5t-9.5 -23t-22.5 -9.5t-23 10l-137 138l-138 -137q-10 -9 -23 -9t-22.5 9.5t-9.5 22.5t10 23l138 136l-138 138
q-9 9 -9 22.5t9.5 23t22.5 9.5t23 -10l137 -138l138 137q10 9 23 9t22.5 -9.5t9.5 -22.5t-10 -23l-138 -136z" />
    <glyph glyph-name="uniE624" unicode="&#xe624;" 
d="M512 748q-185 0 -316.5 -131.5t-131.5 -316.5t131.5 -316.5t316.5 -131.5t316.5 131.5t131.5 316.5t-131.5 316.5t-316.5 131.5zM512 -84q-104 0 -192.5 51.5t-140 140t-51.5 192.5t51.5 192.5t140 140t192.5 51.5t192.5 -51.5t140 -140t51.5 -192.5t-51.5 -192.5
t-140 -140t-192.5 -51.5zM551.5 124q-16.5 15 -39.5 15t-39 -15t-16 -36q0 -24 17 -37.5t39 -13.5t38.5 13.5t16.5 37.5q0 21 -16.5 36zM472 260q4 -31 11 -47q8 -15 28 -15q19 0 27.5 16t10.5 46l16 167q3 23 3 46q0 38 -11 58t-42 20q-26 0 -42 -16t-16 -44q0 -20 4 -68z
" />
    <glyph glyph-name="uniE625" unicode="&#xe625;" 
d="M512 746q-91 0 -173.5 -35.5t-142 -95t-95 -142t-35.5 -173.5t35.5 -173.5t95 -142t142 -95t173.5 -35.5t173.5 35.5t142 95t95 142t35.5 173.5t-35.5 173.5t-95 142t-142 95t-173.5 35.5zM467 548q16 16 42 16q31 0 41.5 -20t10.5 -58q0 -23 -2 -46l-16 -167
q-3 -30 -11 -46t-28 -16t-27.5 15.5t-10.5 46.5l-12 163q-3 47 -3 68q0 28 16 44zM544.5 63.5q-16.5 -13.5 -38.5 -13.5t-38.5 13.5t-16.5 37.5q0 21 16 36t39 15t39 -15t16 -36q0 -24 -16.5 -37.5z" />
    <glyph glyph-name="uniE626" unicode="&#xe626;" 
d="M958 -108l-251 248q87 101 87 234q0 97 -48.5 180.5t-132.5 131.5t-183 48t-183 -48t-133 -131.5t-49 -181t49 -180.5t133 -131.5t183 -48.5q125 0 225 78l252 -250zM138 373.5q0 119.5 85.5 204t206.5 84.5t206.5 -84.5t85.5 -204t-85.5 -204t-206.5 -84.5t-206.5 84.5
t-85.5 204z" />
    <glyph glyph-name="uniE627" unicode="&#xe627;" 
d="M803 300q-2 0 -6.5 -1.5t-5.5 -1.5q-2 -52 -19 -101l1 -1q15 -12 44 -35.5t41 -33.5l-38 -66q-16 6 -50 19.5t-51 19.5q0 1 -1 1q-35 -42 -83 -70q0 -1 1 -2q3 -18 10.5 -56t10.5 -52l-71 -26q-7 12 -25.5 46t-27.5 51v1q-29 -5 -54 -5t-54 5v-1q-10 -17 -28 -51t-25 -46
l-71 26q3 14 10 52t11 56v2h1q-48 28 -83 70q-1 0 -1 -1q-17 -6 -51 -19.5t-50 -19.5l-38 66q12 10 41 33.5t43 35.5q1 0 2 1q-18 49 -19 101q-1 0 -5.5 1.5t-6.5 1.5q-68 23 -92 40l13 75q26 7 88 5q9 0 25 -1q17 46 46 83q-8 13 -12 20q-33 55 -40 81l57 49q25 -11 72 -54
q5 -5 17 -16q42 23 89 33l3 24q9 63 20 87h76q11 -24 20 -87l3 -24q47 -10 89 -33q9 9 17 16q47 43 71 54l58 -49q-7 -26 -40 -81q-4 -8 -13 -20q30 -37 47 -83q15 1 24 1q63 2 89 -5l13 -75q-24 -17 -92 -40zM479 517q-86 0 -147 -61t-61 -147.5t61 -147.5t147 -61t147 61
t61 147.5t-61 147.5t-147 61z" />
    <glyph glyph-name="uniE628" unicode="&#xe628;" 
d="M808 143q-70 0 -116 -53l-320 122q0 20 -5 39l323 209q40 -29 90 -29q63 0 108 44.5t45 107.5t-45 107.5t-108.5 44.5t-108.5 -44.5t-45 -107.5q0 -13 3 -26l-332 -215q-36 22 -79 22q-63 0 -108 -44.5t-45 -107.5t45 -107.5t108 -44.5t108 44l329 -125q5 -59 49 -99.5
t104 -40.5q63 0 108 44.5t45 107.5t-45 107.5t-108 44.5z" />
    <glyph glyph-name="uniE629" unicode="&#xe629;" 
d="M910 184h-374h-4l-145 -4l-14 1q-2 2 -3 4v1l-3 10q0 8 6.5 14t15.5 6l103 11v1l372 42h1q14 0 28 4l42 4q23 3 25 218q0 17 -16 33t-34 16h-498q-18 0 -34 -16t-16 -33t16 -33t34 -16h498q-2 -4 -5 -10.5t-11.5 -23t-16.5 -29t-17.5 -23t-15.5 -10.5l-82 -9l-376 -43
q-11 0 -22 -2q-3 -1 -7 -2l-16 -6l-93 325q14 16 14 32q0 17 -16 32t-34 15h-106q-17 0 -30 -16t-13 -34q0 -17 16 -33t34 -16h51l117 -413q6 -37 34.5 -62t67.5 -27v0h1l22 -1h6h498q18 0 34 14.5t16 31.5t-16 32t-34 15zM377.5 9q-22.5 0 -38 -15t-15.5 -36.5t15.5 -36.5
t38 -15t38.5 15t16 36.5t-16 36.5t-38.5 15zM876.5 9q-22.5 0 -38.5 -15t-16 -36.5t16 -36.5t38.5 -15t38 15t15.5 36.5t-15.5 36.5t-38 15z" />
    <glyph glyph-name="uniE62A" unicode="&#xe62a;" 
d="M957 423q-18 54 -78 76q-55 20 -160 57q-66 85 -105 133q-38 47 -99 47q-59 0 -96 -45t-108 -135q-105 -36 -160 -57q-59 -21 -77 -76q-19 -56 16 -107q35 -53 94 -138q2 -111 4 -167q3 -53 36.5 -86.5t84.5 -33.5q20 0 41 6q56 15 162 46q111 -32 166 -47q20 -6 39 -6
q49 0 82.5 33t35.5 84q3 56 7 170q67 95 100 144q33 48 15 102zM869 365l-114 -162q-3 -125 -7 -194q-2 -45 -47 -33q-18 5 -44.5 12.5t-51 14.5t-46 13t-34.5 10l-13 4q-117 -35 -186 -53q-48 -13 -50 35q-5 119 -5 191q-69 99 -108 157q-11 16 -6 33t25 25l183 65
q78 99 122 153q13 14 30 13t28 -14l120 -152q117 -41 183 -66q22 -8 26.5 -24.5t-5.5 -27.5z" />
    <glyph glyph-name="uniE62B" unicode="&#xe62b;" 
d="M956 423q-18 54 -78 76q-55 20 -160 57q-66 85 -105 133q-38 47 -99 47q-59 0 -96 -45t-108 -135q-105 -36 -160 -57q-59 -21 -77 -76q-19 -56 16 -107q34 -53 94 -138q2 -111 4 -167q3 -53 36.5 -86.5t84.5 -33.5q20 0 41 6q56 15 162 46q111 -32 166 -47q20 -6 39 -6
q49 0 82.5 33t35.5 84q3 56 7 170q67 95 100 144q33 48 15 102z" />
    <glyph glyph-name="uniE62C" unicode="&#xe62c;" 
d="M959 -63q0 -22 -7 -46q-214 -86 -465 -86q-215 0 -407 64q-15 34 -15 68q0 87 90.5 156t232.5 93q-60 47 -96.5 132t-36.5 187q0 73 19.5 126t55.5 83.5t80.5 45t99.5 14.5t99.5 -14.5t80 -45t55 -83.5t19.5 -126q0 -101 -36 -186t-96 -132q143 -24 235 -93t92 -157z
M639 157q-58 -37 -130 -37q-68 0 -126 34q-1 -5 -1 -8q0 -25 38 -42.5t92 -17.5t92 17.5t38 42.5q0 5 -3 11z" />
    <glyph glyph-name="uniE62D" unicode="&#xe62d;" 
d="M858 120l-107 108q-29 29 -29 70.5t29 70.5l107 108q15 15 48 33t51 18v-459q-18 0 -51 18t-48 33zM550 18h-326q-67 0 -115 47t-48 113v240q0 67 48 113.5t115 46.5h326q69 0 126 -51t57 -117l-64 -41q-28 -29 -28 -70.5t28 -70.5l64 -42q0 -65 -57 -116.5t-126 -51.5z
M453 354l-56 56q-20 20 -53.5 39.5t-58.5 16.5v-336q25 -2 58.5 17.5t53.5 38.5l56 56l1 1q51 42 54.5 53t-24.5 33q-19 15 -31 25z" />
    <glyph glyph-name="uniE62E" unicode="&#xe62e;" 
d="M323 153q2 -4 -22.5 -37.5t-49.5 -76t-30.5 -97.5t33.5 -102q7 -9 21.5 3.5t36 40.5t46 60t59 67.5t66.5 57.5q7 4 33 21.5t41 27.5t40.5 28.5t41.5 32t32.5 29.5t24.5 29.5t8 24.5v340q0 30 -68.5 61t-169.5 50t-192 19q-31 0 -72.5 -110.5t-68 -228t-26.5 -155.5
q0 -24 33 -40t72.5 -22t74 -12t36.5 -11zM754 158q12 0 28 3t38.5 13t40 26t30 45.5t12.5 67.5v241q0 39 -12.5 68t-30 44t-40 24.5t-38 12t-28.5 2.5q-11 0 -5 -7q1 -2 7 -7q48 -47 48 -99v-317q0 -54 -49 -103q-8 -13 -1 -14z" />
    <glyph glyph-name="uniE62F" unicode="&#xe62f;" 
d="M701 423q-2 4 22.5 37.5t49.5 76t30.5 97.5t-33.5 102q-7 9 -21.5 -3.5t-36 -40.5t-46 -60t-59 -67.5t-66.5 -57.5q-7 -4 -33 -21.5t-41 -27.5t-40.5 -28.5t-41.5 -32t-32.5 -29.5t-24.5 -29.5t-8 -24.5v-340q0 -30 68.5 -61t169.5 -50t192 -19q31 0 72.5 110.5t68 228
t26.5 155.5q0 24 -33 40t-72.5 22t-74 12t-36.5 11zM270 418q-12 0 -28 -3t-38.5 -13t-40 -26t-30 -45.5t-12.5 -67.5v-241q0 -39 12.5 -68t30 -44t40 -24.5t38 -12t28.5 -2.5q11 0 5 7q-1 2 -7 7q-48 47 -48 99v317q0 54 49 103q8 13 1 14z" />
    <glyph glyph-name="uniE630" unicode="&#xe630;" 
d="M510.5 747q-90.5 0 -173 -35.5t-142.5 -95t-95 -142t-35 -173.5t35 -173.5t95 -142t142.5 -95t173 -35.5t173.5 35.5t142.5 95t95 142t35.5 173.5t-35.5 173.5t-95 142t-142.5 95t-173.5 35.5zM510.5 -98q-108.5 0 -200.5 53.5t-145 145t-53 200t53 200.5t145 145.5
t200.5 53.5t200.5 -53.5t145.5 -145.5t53.5 -200.5t-53.5 -200t-145.5 -145t-200.5 -53.5zM370 198l-83 127l-79 -52l135 -200l438 317l-52 80z" />
    <glyph glyph-name="uniE631" unicode="&#xe631;" 
d="M529 717q-121 0 -224 -49t-163 -133.5t-60 -184.5q0 -82 42.5 -156.5t119.5 -126.5q-7 -23 -18.5 -44.5t-17 -28.5t-8.5 -10q-25 -25 -15 -60q1 -3 2 -5q7 -17 22 -26.5t34 -9.5q121 0 233 102q27 -2 53 -2q121 0 224 49t163 133.5t60 184.5t-60 184.5t-163 133.5
t-224 49zM529 68q-30 0 -63 4q-21 2 -36 -12q-64 -64 -131 -84q27 50 35 106q3 27 -21 42q-69 40 -107 99.5t-38 126.5q0 77 48 142t131.5 102.5t181.5 37.5t181 -37.5t131.5 -102.5t48.5 -142t-48.5 -142t-131.5 -102.5t-181 -37.5zM734 440h-417v-60h330h87h7v60h-7z
M317 321v-60h417h1h5v60h-93h-330z" />
    <glyph glyph-name="uniE632" unicode="&#xe632;" 
d="M118 350l348 166l21 -32q1 -10 7 -16q8 -9 19 -9q12 0 23 10q1 2 3 3l9 4q7 3 8 5l278 140l4 -9q-2 -19 17 -30q12 -7 25 -4t19 14l52 87q5 9 3 20v1q2 11 -5.5 20.5t-19.5 11.5l-90 12q-13 7 -27 1q-11 -5 -16 -17t1 -23l16 -37l-282 -142l-28 43q-6 10 -16 12.5
t-19 -3.5q-13 1 -22 -9l-370 -176q-8 -9 -8 -21.5t8.5 -21.5t20.5 -9t21 9zM919 -61h-41v529q0 16 -12.5 28t-28.5 12h-40q-17 0 -29 -12t-12 -28v-529h-81v447q0 17 -12.5 29t-28.5 12h-41q-16 0 -28 -12t-12 -29v-447h-82v407q0 16 -12 28t-28 12h-41q-16 0 -28.5 -12
t-12.5 -28v-407h-81v325q0 17 -12.5 29t-28.5 12h-40q-17 0 -29 -12t-12 -29v-325h-41q-12 0 -26 -14t-14 -26.5t14 -26.5t26 -14h814q12 0 26 14t14 26.5t-14 26.5t-26 14z" />
    <glyph glyph-name="uniE633" unicode="&#xe633;" 
d="M959 491q0 79 -57 135t-139 56q-47 0 -88 -20t-68 -55q-45 11 -91 11q-51 0 -99 -13q-27 36 -68.5 56.5t-89.5 20.5q-81 0 -138.5 -56t-57.5 -135q0 -53 27.5 -98t73.5 -70v-1v-1l2 5h2q10 0 17 7t7 16q0 10 -6 17v1q-33 19 -53.5 52t-20.5 72q0 59 42.5 100t102.5 41
q45 0 81.5 -24t53.5 -64q59 26 124 26q60 0 116 -23q17 39 53 62.5t81 23.5q60 0 102.5 -41.5t42.5 -100.5q0 -38 -18.5 -70t-50.5 -51v-5q-8 -2 -14 -8.5t-6 -15.5t7 -16t17 -7q9 0 16 5l6 -4q-1 5 -2 9h1q42 26 67 69t25 94zM862 222q-3 10 -12 14.5t-18.5 1.5
t-14.5 -11.5t-2 -17.5q0 -1 1 -2h-1q-23 -102 -106.5 -168.5t-193 -66.5t-193 66.5t-106.5 168.5h-1q3 7 1 15q-3 10 -12 14.5t-18.5 2t-14 -11.5t-2.5 -18q1 -1 1 -2h-3q23 -122 121.5 -202.5t227.5 -80.5t227 80.5t122 202.5h-4q3 7 1 15z" />
    <glyph glyph-name="uniE634" unicode="&#xe634;" 
d="M778 519h-200l65 116q7 12 9.5 19.5t0.5 15t-10 14.5q-12 9 -26 4.5t-23 -20.5l-66 -130q-26 -46 0 -48q4 0 9 1l9 -44h232q19 4 63.5 -19.5t44.5 -51.5v-322q1 -13 -22 -44t-50 -28h-608q-23 1 -48.5 42t-22.5 66v286q0 25 18 48.5t53 22.5h232q7 16 16 43q17 2 23 10
t3 15l-2 8l-68 91q-7 15 -21 19.5t-27 -3.5q-8 -6 -9 -13t0.5 -11.5t8.5 -18.5l50 -65q0 -1 1 -3h-171q-90 2 -134.5 -21t-44.5 -87v-357q0 -65 47.5 -104t118.5 -39h563q70 0 117.5 39t47.5 104v322q0 64 -53.5 103.5t-125.5 39.5zM385 90q11 0 23.5 11t12.5 24v171h104
q69 -155 76 -169q0 -1 2 -5.5t2.5 -6t2.5 -5.5t3.5 -6t4.5 -5.5t5.5 -5t6 -3.5t7.5 -2.5t8 -0.5q31 0 50 48q64 162 64 165q6 13 2 26.5t-16 18.5q-19 6 -33 -33q-54 -161 -67 -161q-5 0 -21.5 40.5t-30.5 80.5l-14 40q-13 37 -32 33h-1h-282q-7 0 -11 -3.5t-4.5 -6.5
t-0.5 -11v-4v-3q0 -7 0.5 -10.5t4.5 -7t11 -3.5h87v-171q0 -13 12.5 -24t23.5 -11z" />
    <glyph glyph-name="uniE635" unicode="&#xe635;" 
d="M423 591h113l-47 63h-107l40 -63h1zM431 500l-43 -69h101l71 96h-120q-3 -15 -9 -27zM928 591q-22 29 -56 46t-73 17h-4l42 -63h91zM956 527h-102q-3 -15 -10 -27l-46 -69h1h15h13h132v64q0 16 -3 32zM895 361v-218q0 -54 -26 -91t-70 -37h-576q-44 0 -70 37t-26 91
l-4 225q0 10 2.5 18.5t6 14.5t9.5 11t11 8t13.5 5t13.5 3.5t13.5 2t11.5 0.5h12h7h68l66 96h-117q-5 -15 -18 -24.5t-28 -9.5q-21 0 -35 14.5t-14 35t14 35t35 14.5q5 0 9 -1h126l-44 63h-62q-68 0 -114 -44.5t-46 -111.5v-387q0 -68 46.5 -114t113.5 -46h576q67 0 113.5 46
t46.5 114v265q-16 8 -34.5 3.5t-29.5 -18.5zM447 303q-1 -10 -1 -17.5t0.5 -34t0.5 -44.5q0 -75 6 -77q19 -7 26 -6t19 9l90 59q20 12 20 30t-20 31l-90 58q-11 7 -29 5t-22 -13zM736 591l-47 63h-95l43 -63h99zM641 500l-46 -69h98l70 96h-112q-3 -15 -10 -27z" />
    <glyph glyph-name="uniE636" unicode="&#xe636;" 
d="M128 150h-3h-14h17zM715 681q-10 5 -17 1l-217 -156h-354q-32 1 -48 -19t-16 -49v-243q0 -26 18 -45t44 -20h76q45 -2 66 -16.5t21 -51.5v-127q0 -10 11 -21t21 -11h32q10 0 21 11t11 21v159v31h97l207 -149l10 -6q11 -5 23 5q4 2 10.5 10.5t6.5 12.5v635q0 6 -8 16
t-15 12zM352 399v-159q0 -5 -1 -10t-3 -8t-4 -5.5t-7 -4t-7.5 -2.5t-9.5 -1h-9h-11h-12h-129q-27 0 -29.5 2.5t-2.5 28.5v159v11v12q0 3 0.5 9.5t1.5 9t2.5 7t3.5 6.5t5.5 4.5t8 3t10.5 0.5h161q6 0 10.5 -0.5t8 -3t6 -4.5t4 -6.5t2.5 -7t1 -8.5v-10v-12v-11zM444 200h-35
v277h35v-277zM673 82l-195 118v277q13 7 33 19t63 37t71.5 41t27.5 15v-132v-234v-141zM842 303h94q9 0 16 7.5t7 18.5t-7 18.5t-16 7.5h-94q-10 0 -16.5 -7.5t-6.5 -18.5t6.5 -18.5t16.5 -7.5zM946 144l-89 52q-9 6 -19.5 3t-15.5 -12.5t-2.5 -19.5t11.5 -16l89 -52
q10 -5 20 -2t15.5 12t2.5 19.5t-12 15.5zM857 480l89 52q9 5 12 15.5t-2.5 20t-15.5 12t-20 -2.5l-89 -52q-9 -5 -11.5 -15.5t2.5 -20t15.5 -12t19.5 2.5z" />
    <glyph glyph-name="uniE637" unicode="&#xe637;" 
d="M287 59h150q41 0 75 29q34 -29 74 -29h150q22 0 42 8t32 19t21 22t13 18l4 8v449q0 29 -27.5 51.5t-60.5 22.5h-138q-76 0 -113 -65q-25 30 -63 47.5t-76 17.5h-105q-32 0 -61 -22.5t-29 -51.5v-449q1 -3 4 -8t13 -18t21.5 -23t31.5 -18t42 -8zM549 508q0 42 14.5 58.5
t60.5 16.5h112q37 -5 37 -38v-261q0 -2 -1 -2.5t-3.5 -1t-5 -0.5t-5.5 0.5t-6.5 1t-6 0.5t-5 0.5t-3.5 1.5h-1h-112q0 -1 1 -2h2l1 -3l-3 3q-44 3 -76 -73v299zM549 171q16 42 83 42l104 -4q8 -1 17 -1t13 1t7 0v-75h-37h-187q-10 8 -4 21t4 16zM250 508q0 20 10.5 46.5
t26.5 28.5h75q51 0 81.5 -18.5t30.5 -56.5v-299q-4 21 -32.5 47t-42.5 28h-112h-1q-2 -1 -4 -1.5t-4.5 -0.5t-6 -0.5t-6.5 -1t-5.5 -0.5t-5 0.5t-3.5 1t-1 2.5v224zM250 171q0 39 24 42h90q35 0 68.5 -10t41.5 -32q-3 -19 0 -37h-187q-8 0 -18 -4.5t-14.5 -4.5t-4.5 9v37z
M923 508q-18 0 -28 -12.5t-10 -25.5v-373q0 -41 -17 -58t-58 -17h-598q-24 -1 -49 25t-25 50v373q0 10 -13.5 24t-24.5 14q-10 0 -22 -9.5t-12 -18.5q0 -5 1 -10h-4q-2 0 1 -3t2 -3v-1v-387q0 -69 24.5 -99t91.5 -30h662q66 0 91 30t25 99v394q0 12 -11.5 25t-25.5 13z" />
    <glyph glyph-name="uniE638" unicode="&#xe638;" 
d="M397 359v-1v-1q0 -9 6 -15t14.5 -6t15 6t6.5 15h1q-1 43 -32 74t-76 31q-43 0 -74 -29.5t-33 -71.5l-1 -4q0 -9 6.5 -15t15 -6t15 6t6.5 15q0 26 19 44.5t46 18.5q26 0 45 -17.5t20 -43.5zM689 193q-7 18 -26 18t-25 -18h-2q-6 -54 -41.5 -90t-83.5 -36t-83.5 36
t-40.5 90h-3q-6 18 -25 18t-26 -18h-1v-8v-1v-4q5 -70 56.5 -118.5t122.5 -48.5t122.5 48.5t56.5 118.5v4q1 4 1 9h-2zM511 749q-91 0 -174 -35.5t-143 -95.5t-95.5 -143t-35.5 -174.5t35.5 -174.5t95.5 -143t143 -95.5t174 -35.5t174 35.5t143 95.5t95.5 143t35.5 174.5
t-35.5 174.5t-95.5 143t-143 95.5t-174 35.5zM511 -94q-107 0 -198 53t-143.5 143.5t-52.5 197.5t52.5 198t143.5 143.5t198 52.5t198 -52.5t144 -143.5t53 -198t-53 -197.5t-144 -143.5t-198 -53zM691 462q-44 0 -75 -29.5t-32 -71.5q0 -1 -1 -1v-3q0 -9 6 -15t15 -6t15 6
t6 15q1 26 20 44.5t46 18.5q26 0 44.5 -17.5t20.5 -43.5q-1 0 -1 -1v-1q0 -9 6 -15t15 -6t15 6t6 15h1q0 43 -31.5 74t-75.5 31z" />
    <glyph glyph-name="uniE639" unicode="&#xe639;" 
d="M956 356q0 35 -25.5 64t-68.5 36.5t-100 -28.5q-35 -22 -64 -40q-12 42 -43.5 69.5t-73.5 27.5h-383q-55 0 -94 -38.5t-39 -93.5v-266q0 -55 39 -93.5t94 -38.5h383q43 0 75 27t44 69q23 -15 65 -40q49 -27 91 -21t71 37t29 72q-1 129 0 257zM650 92q0 -36 -24 -59.5
t-60 -23.5h-334q-49 0 -80 30.5t-31 80.5v194q0 54 19 82.5t64 28.5h362q36 0 60 -23.5t24 -59.5v-250zM900 92q0 -22 -21 -36.5t-44.5 -14t-40.5 8.5q-13 9 -35 26.5t-38 30.5l-16 13v194q59 55 89 75q16 10 40.5 11t45 -14t20.5 -44v-125v-125zM176 591h139h28h56h28
q27 1 39.5 -3.5t14.5 -9t2 -15.5v-27q0 -1 5 -9t10.5 -13.5t11.5 -5.5q10 0 19 9t9 19v27q0 33 -15.5 58.5t-44.5 25.5h-302q-10 0 -19 -9t-9 -19t9 -19t19 -9z" />
    <glyph glyph-name="uniE63A" unicode="&#xe63a;" 
d="M392 456q8 -8 17 1l30 31q10 9 1 17l-8 8q-8 8 -17 -1l-31 -30q-9 -9 -1 -18zM954 603q0 7 -4 11q-4 11 -16 11q-39 5 -97 5q-24 0 -54.5 -9t-49.5 -19l-18 -9q-5 -5 -9.5 -9t-8.5 -9l-309 -309l-13 -12q-1 -2 -3 -4q-6 -12 3 -21l6 -5h-43v67l3 -3l8 -8q3 -3 7 -3
q6 -1 9 3l8 8h1l238 238h1l7 6l7 8q29 53 30 95l-3 76q0 4 -3 8q-3 9 -12 8l-76 4q-19 -1 -42.5 -8t-37.5 -14l-15 -7l-14 -15l1 -1v0l-240 -239v-1l-8 -8q-4 -3 -3 -9q0 -4 3 -7l8 -8l1 -1h-78q-6 0 -10 -5l-60 -59q-10 -10 -2 -18l8 -8q5 -5 12 -3l88 -18l2 -39q0 -6 4 -9
q3 -4 9 -4l40 -2l14 -66l-38 -38q-5 -5 -5 -12t5 -12l4 -4q3 -9 11 -12l123 -25l4 -43v-3q-1 -6 4 -10q5 -5 11 -5h3l46 -4l20 -114q1 -2 1 -4l1 -4q2 -8 11 -11l5 -4q5 -5 12 -5t12 5l73 73q6 6 5 14v90l7 -7q5 -5 13 -5q6 0 10 4q1 0 2 1l12 12v1l317 315q2 2 3 5q3 3 6 5
q37 67 37 122q0 25 -1 49.5t-2 35.5zM560 692q28 0 56 -2q2 -29 2 -58q-1 -27 -17 -56l-99 99q29 16 58 17zM254 277q-3 6 -10 5l-34 2l-1 34q0 6 -5 9q-3 3 -6 4l-82 17l27 27h104q7 0 11 6l4 2l8 8q8 9 -1 18l-22 21l226 225l110 -109l-226 -225l-21 21q-10 9 -18 1l-8 -8
q0 -1 -1 -2q-10 -2 -10 -12l-1 -97h-6q-9 0 -14 -6v-1l-7 -7l-13 61q-1 4 -4 6zM571 108l-25 24q-5 5 -12 5t-12 -5l-12 -12q-10 -4 -10 -15v-128l-34 -35l-18 100q0 2 -1 3q-3 12 -15 12l-42 4l-4 42q0 7 -4.5 11t-10.5 4h-10l-91 19l5 5l4 4l28 28h127q8 0 13 5l2 2l12 12
q5 5 5 12t-5 12l-25 25l287 285l134 -133zM908 502q-1 -36 -24 -74l-129 128q38 24 78 24q36 0 72 -3q3 -37 3 -75zM705 388q-5 5 -12 5t-13 -5l-24 -25q-5 -5 -5 -12t5 -12l12 -12q5 -5 12.5 -5t12.5 5l24 24q5 5 5 12t-5 12zM619 302q-5 6 -12 6t-12 -6l-24 -24
q-5 -5 -5 -12t5 -12l12 -12q5 -5 12 -5t12 5l25 24q5 5 5 12t-5 12z" />
    <glyph glyph-name="uniE63B" unicode="&#xe63b;" 
d="M944 436q31 14 31 23q0 12 -62 39q-53 24 -101.5 45.5t-78 35.5t-58.5 26.5t-41.5 19.5t-29.5 13.5t-19.5 8.5t-14 4t-12.5 2h-13h-18q-11 0 -24.5 -1.5t-21 -3t-7.5 -0.5q-44 -20 -164 -74t-169 -76l-17 -6l-18 -6q-11 0 -19 -8t-8 -19.5t8 -19.5t19 -8q42 -18 122 -54
v-291q0 -12 24.5 -31t63 -37.5t96 -31.5t115.5 -13q53 0 108.5 14.5t95 35t64.5 41t25 33.5v282q54 26 89 41v-285h-9q-8 0 -8 -8t8 -8h9v-37q-17 -9 -17 -28q0 -13 9.5 -22.5t23.5 -9.5t23.5 9.5t9.5 22.5q0 19 -16 28v37h8q8 0 8 8t-8 8h-8v300l1 1h1zM513 491l15 -3
l-11 -8l-18 4zM759 97q0 -10 -24 -23.5t-77 -26t-116 -12.5t-123 12t-92 26.5t-32 23.5v250q141 -64 182 -82q12 -4 20.5 -7t13 -5t7 -3t4 -1.5t2.5 -0.5h3q17 0 50 17q44 19 182 85v-253z" />
    <glyph glyph-name="uniE63C" unicode="&#xe63c;" 
d="M860 277q41 61 51 117t-14 100q-24 41 -73.5 60.5t-117.5 17.5q-32 84 -81 133t-105 49q-55 0 -103 -46.5t-80 -127.5q-72 5 -125.5 -14.5t-77.5 -62.5q-25 -46 -14 -104t55 -121q-45 -64 -57 -123t13 -106q27 -47 89 -65.5t145 -8.5q32 -54 71.5 -84t83.5 -30
q45 0 85.5 31.5t71.5 88.5q79 -8 137 11.5t84 64.5q24 45 13.5 101.5t-51.5 118.5zM854 470q34 -60 -24 -153q-37 44 -85 85q-7 64 -23 122q100 1 132 -54zM750 332q29 -27 51 -55q-24 -30 -55 -60q5 45 5 90q0 12 -1 25zM681 451q-24 17 -50 31q-18 11 -38 21q36 10 68 15
q12 -31 20 -67zM520 673q70 0 122 -108q-56 -9 -116 -31q-65 27 -127 38q52 101 121 101zM379 525q38 -6 79 -20q-30 -14 -60 -31l-42 -26q9 41 23 77zM176 478q34 59 144 54q-18 -61 -26 -130q-50 -41 -88 -85q-65 99 -30 161zM294 216q-33 30 -59 61q24 29 54 56v-26
q0 -46 5 -91zM174 74q-36 64 31 164q43 -50 100 -96q14 -65 37 -120q-130 -13 -168 52zM358 104q21 -14 42 -26q28 -16 56 -30q-39 -13 -76 -20q-13 35 -22 76zM520 -120q-68 0 -120 101q61 12 124 37q61 -22 119 -32q-52 -106 -123 -106zM663 33q-35 5 -72 16q20 10 39 21
q27 16 53 34q-8 -38 -20 -71zM608 116q-41 -24 -84 -43q-53 21 -103 50q-39 23 -76 51q-7 53 -7 106q0 50 6 99q36 27 75 49q52 30 106 52q44 -19 85 -43q44 -26 84 -57q7 -54 7 -108q0 -49 -6 -98q-41 -32 -87 -58zM855 82q-36 -62 -155 -54q22 53 34 114q55 45 96 95
q59 -95 25 -155zM516 313q-15 0 -25.5 -10.5t-10.5 -25.5t10.5 -25.5t25.5 -10.5t25.5 10.5t10.5 25.5t-10.5 25.5t-25.5 10.5z" />
    <glyph glyph-name="uniE63D" unicode="&#xe63d;" 
d="M280 -148q-18 0 -30 9q-13 11 -15 31q-2 33 -32 102q-52 25 -84 31q-4 1 -10 2q-24 4 -33 13q-11 12 -8 40q1 3 1 5q-3 6 1 22q4 25 12.5 36t31.5 17q40 11 122 3q90 106 127 144q-2 3 -4 8q-193 102 -266 146q-17 6 -25 21q-11 24 3 56v2l2 1q11 15 25 29q32 32 55 32
q42 0 264 -49q109 -23 142 -29q2 0 6 1q22 6 28 12l168 167l1 1q28 20 56.5 30.5t48 12t38 -1.5t25 -5.5t10.5 -4.5l7 -7q2 -4 4.5 -10.5t5.5 -25t1 -38t-12.5 -48t-30.5 -56.5v-1l-1 -1q-123 -123 -168 -167q-6 -7 -12 -29q-1 -3 -1 -5q6 -33 29 -142q47 -222 47 -263
q0 -24 -32 -55q-14 -15 -29 -26l-1 -1l-2 -1q-33 -14 -56 -2q-16 7 -21 24q-44 73 -145 266q-4 1 -8 3q-38 -37 -145 -127q8 -82 -3 -122q-7 -23 -18 -31.5t-35 -13.5h-2q-21 -5 -32 -5zM231 13q35 -77 37 -119q1 -5 2 -6q6 -5 35 1l2 1q17 3 20.5 6t7.5 15q10 38 1 118
l-1 9l7 5q120 102 155 137l5 5h6h6q15 1 21 -5q1 -1 1 -2q2 -1 4 -1l6 -2l3 -6q105 -198 149 -271l1 -2v-3q2 -4 4 -6q9 -4 27 3q13 10 24 21q22 22 22 32q0 38 -47 256q-24 114 -30 148l-1 7l3 4q0 1 1 3q8 31 21 44q19 19 57 57.5t72.5 72.5t36.5 37q37 51 36 101
q0 20 -5 36q-17 5 -36 5q-50 1 -102 -35l-165 -165q-14 -14 -45 -21q-2 -1 -3 -1l-4 -3l-7 1q-34 6 -148 31q-219 48 -257 48q-9 0 -31 -22q-11 -11 -22 -24q-6 -18 -2 -26q2 -3 6 -5h2l2 -1q73 -44 273 -150l5 -3l3 -6q0 -2 1 -4q1 0 2 -1q6 -6 5 -21v-5v-7l-5 -5
q-36 -35 -136 -154l-6 -7l-9 1q-80 9 -118 -1q-12 -3 -15 -6.5t-6 -20.5q-1 -4 -1 -7q2 -5 0 -17q-1 -10 0 -14q3 -1 14 -3q7 -2 10 -2q41 -8 98 -37z" />
    <glyph glyph-name="uniE63E" unicode="&#xe63e;" 
d="M658 178q6 2 16 0.5t15 -2t14.5 -4t13.5 -5t12 -5.5q18 -9 26.5 -8t5.5 19q-5 36 -39.5 57t-78 14.5t-69.5 -36.5t-20 -66q1 -10 4 -14t9 -2t11 5.5t15 11.5q7 5 11 8t11.5 8.5t13.5 8.5t13.5 5.5t15.5 4.5zM566 738l-9 1q-34 0 -72.5 -11.5t-66.5 -29.5
q-19 -12 -31 -20.5t-15 -11.5l-2 -2q-15 -14 -31 -39t-22 -46q-10 -33 -10.5 -71.5t3.5 -62t9 -35.5q5 -14 21.5 -37t40.5 -42q34 -25 81.5 -35.5t90.5 -0.5q41 11 68 33q62 50 37 157q-10 45 -51 64q-7 3 -15 5q-6 2 -8 2q-11 0 -19 -7.5t-8 -18.5q0 -10 9 -19l4 -3t6 -3
q2 -1 5 -3q23 -13 29 -33q16 -60 -9 -95t-75 -39q-19 -1 -40 1.5t-44 12.5t-41 26t-30 45.5t-13 67.5q-1 61 19 97q22 38 62.5 62t66.5 32q22 6 50 6h14q144 -21 241 -129.5t97 -253.5q0 -104 -53 -193t-144 -141t-198.5 -52t-198.5 52t-143.5 141t-52.5 193q0 114 62 209
q9 8 9 20q0 11 -7.5 18.5t-19.5 7.5q-6 0 -12 -3l-3 3q-83 -114 -83 -254q0 -90 35.5 -171t95.5 -139.5t143 -93.5t174.5 -35t174.5 35t143 93.5t95.5 139.5t35.5 171q0 110 -52 205.5t-142.5 156t-200.5 73.5zM305 198q7 -2 14 -5.5t13.5 -8.5t10 -8.5t10.5 -9.5l10 -10
q3 -3 7.5 -5t7.5 1t5 10q7 27 -10.5 52t-50 33.5t-61 -4.5t-36.5 -40q-3 -13 3.5 -14.5t20.5 3.5q6 2 10 3t11 2.5t12 2t11.5 0t11.5 -1.5z" />
    <glyph glyph-name="uniE63F" unicode="&#xe63f;" 
d="M857 403q-5 0 -11 -1q-12 3 -31 -9q-8 -4 -16 -9q-46 -27 -89 -52q-2 -1 -5 -2h-58v52q0 5 -1 11l34 33q28 8 54 15q49 -7 84 28q30 30 30 71.5t-29.5 71t-71 29.5t-71.5 -30q-36 -36 -28 -87q-6 -25 -13 -51l-34 -34q-6 1 -12 1h-51v62q23 39 47 79q1 2 2 5q24 27 24 64
q0 41 -29.5 70.5t-71 29.5t-71 -29.5t-29.5 -70.5q0 -37 23 -64q1 -3 2 -5q24 -38 48 -79v-62h-51q-7 0 -13 -1l-33 33q-8 27 -14 52q8 51 -28 87q-30 30 -71.5 30t-71 -29.5t-29.5 -71t30 -71.5q35 -35 85 -28q25 -7 53 -15l34 -34q-1 -5 -1 -10v-52h-58q-3 1 -5 2
q-43 25 -89 52q-7 5 -15 9q-20 11 -32 9q-6 1 -11 1q-42 0 -71.5 -29.5t-29.5 -71.5t29.5 -71t71.5 -29h11q12 -2 31 9q9 4 16 9q45 27 89 52q2 1 5 3h58v-51q0 -8 3 -16l-47 -52q-21 -6 -38 -11q-52 10 -89 -27q-30 -30 -29.5 -71.5t29.5 -71t71 -29.5t71 30q37 37 28 88
q8 32 16 62l2 6l31 34q5 -1 11 -1h157q5 0 11 1l31 -34q0 -3 1 -5q8 -31 17 -62q-10 -52 27 -89q30 -29 71.5 -29t71 29t29.5 71t-30 71q-37 37 -89 28q-17 4 -38 10l-46 51q2 8 2 17v51h59q2 -2 4 -3q43 -24 89 -51q8 -6 16 -10q19 -11 31 -8q6 -1 11 -1q42 0 71.5 29.5
t29.5 71t-29.5 71t-71.5 29.5zM748 586q19 0 32 -13.5t13 -32.5t-13 -32.5t-32 -13.5t-32.5 13.5t-13.5 32.5t13.5 32.5t32.5 13.5zM272.5 494q-18.5 0 -32 13.5t-13.5 32.5t13.5 32.5t32 13.5t32 -13.5t13.5 -32.5t-13.5 -32.5t-32 -13.5zM163 257q-19 0 -32.5 13.5
t-13.5 32t13.5 32t32.5 13.5t32 -13.5t13 -32t-13 -32t-32 -13.5zM272.5 1q-18.5 0 -32 13.5t-13.5 32.5t13.5 32t32 13t32 -13t13.5 -32t-13.5 -32.5t-32 -13.5zM464 650q0 19 13.5 32t32.5 13t32.5 -13t13.5 -32t-13.5 -32.5t-32.5 -13.5t-32.5 13.5t-13.5 32.5zM592 256
q0 -15 -10.5 -25.5t-25.5 -10.5h-91q-15 0 -26 10.5t-11 25.5v92q0 15 11 26t26 11h91q15 0 25.5 -11t10.5 -26v-92zM748 92q19 0 32 -13t13 -32t-13 -32.5t-32 -13.5t-32.5 13.5t-13.5 32.5t13.5 32t32.5 13zM857 257q-19 0 -32 13.5t-13 32t13 32t32 13.5t32.5 -13.5
t13.5 -32t-13.5 -32t-32.5 -13.5zM585 24q-25 41 -47 79v62h-55v-62q-24 -40 -48 -79q-1 -2 -2 -5q-23 -28 -23 -64q0 -42 29.5 -71t71 -29t71 29t29.5 71q0 36 -24 64q-1 3 -2 5zM510 -90q-19 0 -32.5 13t-13.5 32t13.5 32.5t32.5 13.5t32.5 -13.5t13.5 -32.5t-13.5 -32
t-32.5 -13z" />
    <glyph glyph-name="uniE640" unicode="&#xe640;" 
d="M386 566h-128v157q0 3 0.5 7.5t0.5 6.5t-1 4t-3.5 3t-7.5 1q-11 0 -19 -8t-8 -19v-152h-120q-12 0 -20 -8t-8 -19t8 -19t20 -8h120v-241l-116 -62q-10 -5 -13 -15.5t2.5 -20.5t16.5 -13t21 2l89 48v-199v-2q-3 -28 -19 -34q-17 -9 -36 -7t-29.5 6t-22 11t-13.5 8t-4 -1
q-3 1 -5 1q-12 0 -20 -8t-8 -19q0 -19 18 -25v-2q34 -21 65 -27q54 -9 92 18q35 25 21 88l-1 3v209l124 66q10 5 13 15.5t-2.5 20.5t-16.5 13t-21 -2l-97 -52v221h128q11 0 19.5 8t8.5 19t-8.5 19t-19.5 8zM920 566h-208v-39h193q40 0 59 -17t19 -63v-436q0 -42 -18 -60.5
t-60 -18.5h-274q-45 0 -70 18.5t-25 54.5l6 546l6 17q12 35 40 52t70 25l177 33q7 -5 15 -5q12 0 20 8t8 19t-8 19t-20 8q-1 0 -200 -39q-70 -14 -113 -58.5t-39 -106.5v-1v-33v-507q0 -37 25 -58t64 -21h323q40 0 67.5 21.5t27.5 57.5v507q0 36 -23 56.5t-62 20.5zM631 167
q20 -8 23.5 -8t15.5 8l117 78q22 14 22 19.5t-22 19.5l-117 78q-31 19 -39 0q-1 -12 -1 -22.5t0.5 -43t0.5 -51.5q0 -18 -0.5 -33t-1 -22.5t-1 -13t0 -7.5t2.5 -2z" />
    <glyph glyph-name="uniE641" unicode="&#xe641;" 
d="M782 290q-27 0 -46 -19t-19 -45t19 -45t46 -19t46 19t19 45t-19 45t-46 19zM958 173v195v4q0 22 -15.5 37t-36.5 15h-1l-32 1l-74 219q-1 1 -1 2l-1 4h-1q-14 31 -48 31h-1h-471q-20 0 -35 -13t-17 -33l-72 -210l-33 -1h-1q-21 0 -36.5 -15t-15.5 -37v-5v-259v-18
q0 -23 22.5 -42t45.5 -19h44v-56v-1q3 -17 15.5 -29.5t30.5 -15.5l1 -1h72q18 3 31 15.5t16 29.5l1 1v57h335v-58l1 -1q5 -28 32 -40l4 -4h82q18 3 31 15.5t16 29.5l1 1v57h43q23 0 45.5 19t22.5 42v81v1v1zM306 612h412q2 0 11 1.5t15.5 1.5t7.5 -3l35 -171h-550zM890 132
q0 -23 -6 -29t-29 -6h-652q-69 0 -69 35v171q0 23 23 46t46 23h618q23 0 46 -23t23 -46v-171zM640 209h-256q-11 0 -21 -10t-10 -21.5t10 -21.5t21 -10h256q11 0 21 10t10 21.5t-10 21.5t-21 10zM243 290q-27 0 -46 -19t-19 -45t19 -45t46 -19t46 19t19 45t-19 45t-46 19z
" />
    <glyph glyph-name="uniE642" unicode="&#xe642;" 
d="M465 441h92l20 -58h50l-92 232h-49l-89 -232h49zM510 562l32 -86h-63zM920 342h-149v335q0 9 -14 23.5t-23 14.5h-447q-9 0 -23.5 -14.5t-14.5 -23.5v-335h-112q-29 2 -51.5 -16t-22.5 -30v-380q0 -9 6 -15.5t15 -6.5h852q9 0 15.5 6.5t6.5 15.5v380q0 9 -14.5 27.5
t-23.5 18.5zM324 603q0 9 14 23t23 14h298q9 0 23.5 -14t14.5 -23v-224q0 -9 -20 -24.5t-29 -15.5l-287 3q-9 0 -23 14t-14 23v224zM476 -3q0 -8 -15.5 -18t-24.5 -10h-261q-9 0 -23.5 14t-14.5 23v224q0 9 10.5 24.5t18.5 15.5h275q9 0 22 -12.5t13 -21.5v-239zM883 6
q0 -9 -14 -23t-23 -14h-261q-9 0 -23.5 14t-14.5 23v224q0 9 14.5 23t23.5 14h261q36 0 37 -37v-224zM343 112q3 1 6 4t4.5 5t4 6.5t4.5 6.5q8 14 8 30q0 14 -7 26q-8 14 -13 17q-11 8 -21 9q-13 3 -41 3h-92v-225h79q44 0 56 1q15 2 28 11q14 9 20 22q7 15 7 31
q0 20 -11 34q-9 12 -32 19zM237 184h33q32 0 39 -1q12 -1 17.5 -7.5t5.5 -18.5q0 -13 -6.5 -20t-18.5 -8q-6 -1 -34 -1h-36v56zM334.5 38q-6.5 -7 -16.5 -9q-7 -2 -32 -2h-49v66h44q31 0 40.5 -3t14.5 -10.5t5 -17.5q0 -17 -6.5 -24zM761 39.5q-13 -11.5 -32 -11.5
q-25 0 -40.5 18.5t-15.5 61.5q0 41 16 59.5t41 18.5q19 0 31.5 -10.5t16.5 -28.5l46 11q-8 27 -23 42q-27 25 -69 25q-48 0 -77.5 -31.5t-29.5 -88.5q0 -54 29.5 -85.5t75.5 -31.5q36 0 60 18.5t35 55.5l-45 14q-6 -25 -19 -36.5z" />
    <glyph glyph-name="uniE643" unicode="&#xe643;" 
d="M531 551q22 12 23.5 30.5t-12.5 35.5t-31 32t-32 25l-14 9q3 -3 8 -7.5t14.5 -19t12 -29t-6.5 -36t-32.5 -42t-32 -44.5t-3.5 -44.5t14 -38t17 -27.5t9 -10q-2 5 -4.5 12t-4.5 28t2.5 40.5t22.5 43.5t50 42zM564 418q-2 3 -4 7.5t-3.5 17.5t3 25t22.5 26t48 24
q21 6 25.5 22.5t-4.5 34.5t-21 35t-22 29l-11 11l5 -10q3 -6 7.5 -23.5t3 -33t-13 -34.5t-35.5 -31q-42 -24 -38 -46t19 -38t19 -16zM874 314q3 23 4 43.5t1 30.5v10v16v4q-3 44 -60 80t-150 55v-47q69 -15 108.5 -39.5t39.5 -53.5q0 -31 -45.5 -59.5t-127 -46t-176 -17.5
t-176.5 17.5t-129 46t-47 59.5q0 33 51.5 59.5t137.5 40.5v46q-109 -19 -175.5 -57.5t-67.5 -86.5v-1v-16q-1 -6 -1 -15.5t2 -40t6.5 -60t15.5 -70t28 -76t45 -73t64 -65.5t88.5 -48.5t115.5 -26.5h81q187 18 284 159q6 -1 13 -1q64 0 110.5 43.5t46.5 103.5
q0 41 -22.5 60.5t-64.5 25.5zM503 -30h-82q-55 9 -101 30t-77 48t-55 61.5t-37.5 65.5t-22.5 65t-12 54.5t-4 39.5q54 -42 150.5 -68.5t210.5 -26.5q113 0 208 26t148 68q-1 -23 -5 -46.5t-14 -57.5t-24.5 -64.5t-39.5 -63.5t-57.5 -58t-80.5 -45t-105 -28zM820 130
q32 63 47 139q45 -5 45 -42q0 -33 -27.5 -61.5t-64.5 -35.5zM365 418q-1 3 -2.5 7t-3.5 18t0 28.5t12 36t27 43.5q13 16 11 31t-14.5 27t-26 21.5t-24.5 14.5l-12 5q2 -2 4.5 -6.5t7.5 -18t7 -28t-2.5 -36.5t-16.5 -43.5t-13 -39.5t6.5 -28.5t16 -18t16.5 -10.5z" />
    <glyph glyph-name="uniE644" unicode="&#xe644;" 
d="M342 -110q-205 0 -267 60l-2 2l-1 3q-18 36 -3 75q18 46 82 71l2 1l104 7l30 12q28 22 36 35q10 15 31 15q8 0 27 -3q25 -5 39 -5q33 0 39 16v3l2 2q61 99 127 202q134 208 163 233q46 40 125 74l11 4l8 -9q4 -4 9 -10t16.5 -24.5t19.5 -37.5t13 -46.5t3 -53.5
q-5 -45 -29 -138q-6 -24 -9 -35v-1l-1 -1q-16 -39 -30.5 -142.5t-19 -158t-6.5 -92.5q-1 -15 -18.5 -32.5t-33.5 -17.5t-33.5 17.5t-17.5 33.5v3l15 233v1q6 21 4 36q-16 -8 -31.5 -26.5t-31 -48.5t-24 -50.5t-22.5 -55.5q-30 -75 -44 -88q-16 -15 -33.5 -22.5t-49.5 -16.5
q-31 -9 -51 -16h-1l-2 -1q-66 -7 -145 -7zM101 -28q55 -48 241 -48q73 0 139 7q20 6 51 15q20 6 29 9t20.5 9t19.5 14q8 7 36 75q15 40 25 62t27 55t35.5 53t39.5 29q9 5 17 5q14 0 22 -11q10 -13 7 -44q-1 -11 -4 -22l-15 -230q2 -4 8 -10t10 -8q4 2 10.5 8t7.5 10
q3 38 7.5 93.5t19.5 161t32 147.5q2 11 8 35q24 90 28 132q7 68 -44 138q-70 -33 -105 -63q-21 -18 -107.5 -150.5t-175.5 -275.5q-14 -38 -70 -38q-17 0 -45 5q-16 3 -21 3h-2q-13 -20 -46 -45l-2 -2l-39 -15l-105 -7q-47 -19 -60 -51q-8 -22 1 -46z" />
    <glyph glyph-name="uniE645" unicode="&#xe645;" 
d="M651 403q-20 1 -40 -7.5t-30 -17.5l-9 -9h-16q-30 19 -40 26q-24 16 -80 17q-16 0 -46 -4t-51 -9l-22 -4v-9q175 -114 175 -288q0 -32 4 -63t16.5 -66t32 -61t53 -42t77.5 -14q43 2 75.5 21.5t49.5 44.5t27 59t12.5 57.5t2.5 46.5q0 51 -14 110.5t-42 110.5
q-54 98 -135 101zM699 -88q-36 -12 -62.5 -2.5t-45 29.5t-30 49.5t-16.5 57t-5 52.5q0 71 -24 140t-80 114v9q5 0 14 -1.5t33 -9t45 -19t45 -35t38 -54.5q14 -29 24.5 -56t14.5 -41.5t7.5 -26t7 -16t10.5 -4.5q32 -2 32 26q0 17 -48 135q-20 33 -56 68q-1 1 2.5 4t11 7.5
t13.5 7.5l16 8q10 5 13 7q1 0 11.5 -8t26 -25t31.5 -37.5t30.5 -49.5t19.5 -58q6 -32 9.5 -54t5.5 -53t-2.5 -54t-14 -46t-29.5 -39.5t-48 -24.5zM858 590q-18 26 -41 39t-43 13t-37.5 -3.5t-27.5 -9.5l-10 -5q4 23 -16 59q-18 32 -58 49.5t-83.5 16t-84.5 -29t-60 -78.5
q-53 -143 -188 -202q-43 -19 -59 -19v-11l8 -6q39 -25 80 -87t71 -167q13 -43 35.5 -80t42.5 -58t43.5 -38t32 -21.5t13.5 -6.5v60h-8q-19 14 -63 59q-20 20 -39 70t-32.5 98t-16.5 53q-4 8 -22 35.5t-34 51.5l-15 23q-9 4 0 8q10 5 30.5 17t53.5 37t51 48q10 14 28 49.5
t33.5 63t45.5 52.5t68 30q22 3 40 -5t29 -22t19.5 -33.5t12.5 -37.5t6.5 -36t3 -25.5t0.5 -9.5h8q1 2 4 7t13 17t20 20t26 13t32 2q40 -9 50 -31.5t6 -70.5q-2 -25 -18 -50.5t-31 -38.5l-15 -13l32 -34q32 27 52 61t24 54l4 21q1 7 2 18t-2.5 38.5t-15.5 45.5z" />
    <glyph glyph-name="uniE646" unicode="&#xe646;" 
d="M515 752q-91 0 -173.5 -35.5t-142.5 -95.5t-95.5 -143.5t-35.5 -174.5t35.5 -174.5t95.5 -143.5t142.5 -95.5t173.5 -35.5t173.5 35.5t142 95.5t95 143.5t35.5 174.5t-35.5 174.5t-95 143.5t-142 95.5t-173.5 35.5zM896 424q-101 19 -176 90q45 37 86 64q63 -67 90 -154z
M777 606q-38 -24 -86 -62q-55 65 -76 148q91 -24 162 -86zM515 705q35 0 55 -2q10 -52 32.5 -93t60.5 -87q-14 -12 -43.5 -47.5t-43.5 -49.5q-87 80 -289 207q103 72 228 72zM247 608q154 -93 285 -215q-15 -16 -34.5 -40t-48 -61t-36.5 -47q-106 81 -237 81q-27 0 -60 -6
q7 79 42.5 159t88.5 129zM116 280q32 5 60 5q112 0 203 -68q-73 -98 -137 -208q-55 52 -88.5 122t-37.5 149zM518 -99h-3q-135 0 -242 82q63 99 143 203q49 -49 76.5 -114.5t27.5 -138.5q0 -5 -2 -32zM563 -96q0 5 -1 15t-1 14q0 158 -127 281q18 23 70 76.5t64 66.5
q123 -119 250 -323q-44 -50 -113.5 -84.5t-141.5 -45.5zM593 395q54 56 99 97q50 -49 101 -77t115 -36l-2 8l3 -9h-1v1q7 -38 7 -76q0 -122 -68 -223q-16 29 -40.5 66t-83.5 109t-130 140z" />
    <glyph glyph-name="uniE647" unicode="&#xe647;" 
d="M477 301q0 -15 10 -25.5t24.5 -10.5t24.5 10.5t10 25.5t-10 25.5t-24.5 10.5t-24.5 -10.5t-10 -25.5zM599 480.5q0 37.5 -25.5 63.5t-62 26t-62 -26t-25.5 -63.5t25.5 -63.5t62 -26t62 26t25.5 63.5zM249 301q0 -37 25.5 -63.5t62 -26.5t62 26.5t25.5 63.5t-25.5 63.5
t-62 26.5t-62 -26.5t-25.5 -63.5zM511.5 32q36.5 0 62 26t25.5 63.5t-25.5 63.5t-62 26t-62 -26t-25.5 -63.5t25.5 -63.5t62 -26zM686 211q36 0 62 26.5t26 63.5t-26 63.5t-62 26.5t-61.5 -26.5t-25.5 -63.5t25.5 -63.5t61.5 -26.5zM933 -35q-7 6 -17 36t-16.5 55.5
t-6.5 26.5q55 102 55 218q0 91 -34.5 174.5t-93 143.5t-139.5 95.5t-169.5 35.5t-169.5 -35.5t-139.5 -95.5t-93 -143.5t-34.5 -174.5t34.5 -174t93 -143t139.5 -95.5t169 -35.5q150 0 269 95q-1 20 -6 26q-3 3 -10 6t-13 4l-6 2q-4 -3 -10.5 -7t-9.5 -6q-1 -1 -2 -1
q-96 -66 -211 -66q-105 0 -193.5 53t-140 144t-51.5 198t51.5 198t140 144t193 53t193 -53t140 -144t51.5 -198q0 -101 -47 -190l-5 -45q1 -29 18 -78t38 -67q4 -3 14 -4q8 -1 15 3q13 4 12 29q-1 4 -3 8l-3 6z" />
    <glyph glyph-name="uniE648" unicode="&#xe648;" 
d="M563.5 496q-90.5 53 -191.5 25.5t-153 -119.5q-28 -50 -33 -106.5t13 -106.5q-16 -116 -23 -152q-1 -9 -8 -27t-9.5 -31.5t-1 -30.5t16.5 -35t44 -35t51.5 -22t38 2.5t25.5 16.5t21.5 24t18.5 21q28 25 126 104q104 27 157 121q52 92 25 195t-117.5 156zM333 -90l-159 95
l15 26l158 -96zM395 -38l-204 118l22 38l203 -117zM499 226l-62 -44q-65 -43 -85 0q-1 0 0 85q0 17 -1 32t-1 16.5t2 8.5q20 42 85 0l62 -44q17 -11 17 -27t-17 -27zM801 216l-50 30q-8 4 -16.5 1.5t-13 -10t-2.5 -16.5t10 -14l50 -29q8 -5 16.5 -2.5t13 10.5t2 17t-9.5 13z
M239 547l-50 29q-8 5 -17 2.5t-13 -10.5t-2 -17t10 -13l50 -30q8 -4 16.5 -1.5t13 10t2 16.5t-9.5 14zM678.5 709.5q-7.5 4.5 -16 2t-13.5 -10.5l-29 -51q-4 -8 -2 -17t10 -13.5t16.5 -2t13.5 10.5l28 51q5 8 2.5 17t-10 13.5zM860.5 453q-2.5 9 -10.5 13.5t-16 2.5l-58 -16
q-9 -2 -13.5 -10t-2 -17.5t10.5 -14t17 -2.5l57 16q9 3 13.5 11t2 17zM387 731q-2 10 -10 14.5t-17 2t-13.5 -10.5t-2.5 -17l15 -59q3 -9 11 -13.5t17 -2t13.5 10.5t1.5 17zM563.5 496q-90.5 53 -191.5 25.5t-153 -119.5q-28 -50 -33 -106.5t13 -106.5q-16 -116 -23 -152
q-1 -9 -8 -27t-9.5 -31.5t-1 -30.5t16.5 -35t44 -35t51.5 -22t38 2.5t25.5 16.5t21.5 24t18.5 21q28 25 126 104q104 27 157 121q52 92 25 195t-117.5 156zM333 -90l-159 95l15 26l158 -96zM395 -38l-204 118l22 38l203 -117zM499 226l-62 -44q-65 -43 -85 0q-1 0 0 85
q0 17 -1 32t-1 16.5t2 8.5q20 42 85 0l62 -44q17 -11 17 -27t-17 -27zM801 216l-50 30q-8 4 -16.5 1.5t-13 -10t-2.5 -16.5t10 -14l50 -29q8 -5 16.5 -2.5t13 10.5t2 17t-9.5 13zM239 547l-50 29q-8 5 -17 2.5t-13 -10.5t-2 -17t10 -13l50 -30q8 -4 16.5 -1.5t13 10t2 16.5
t-9.5 14zM678.5 709.5q-7.5 4.5 -16 2t-13.5 -10.5l-29 -51q-4 -8 -2 -17t10 -13.5t16.5 -2t13.5 10.5l28 51q5 8 2.5 17t-10 13.5zM860.5 453q-2.5 9 -10.5 13.5t-16 2.5l-58 -16q-9 -2 -13.5 -10t-2 -17.5t10.5 -14t17 -2.5l57 16q9 3 13.5 11t2 17zM387 731
q-2 10 -10 14.5t-17 2t-13.5 -10.5t-2.5 -17l15 -59q3 -9 11 -13.5t17 -2t13.5 10.5t1.5 17z" />
    <glyph glyph-name="uniE649" unicode="&#xe649;" 
d="M827 617q-87 87 -202.5 117.5t-231 0t-201.5 -117.5q-64 -64 -98 -148t-34 -169t34 -169t98.5 -148.5t148 -98t168.5 -33.5t169 33.5t148.5 98t98 148.5t33.5 169t-33.5 169t-97.5 148zM229 581q57 57 131 86.5t149 29.5t149.5 -29.5t131.5 -86.5q59 -60 89 -138
q-11 14 -50 24q-28 6 -72.5 14t-46.5 8q-39 8 -55 19.5t-39 54.5q-8 15 -25.5 47t-25.5 45q-21 39 -52.5 39.5t-52.5 -37.5q-20 -37 -48 -92q-22 -42 -38.5 -54t-53.5 -21q-5 -1 -8 -2q-18 -5 -57 -11t-55 -9q-51 -11 -63 -29q30 80 92 142zM673 205q3 -12 16.5 -54.5
t16.5 -59.5t3.5 -22t0.5 -13t-1.5 -8.5t-6.5 -0.5t-11 3t-18 8q-11 6 -55.5 30.5t-55.5 29.5q-30 15 -51 15t-51 -15q-10 -5 -33.5 -19.5t-35.5 -20.5q-7 -3 -20 -10q-9 -4 -13 -6l-11 -6q-7 -3 -10.5 -3.5t-8.5 -1.5t-7.5 0.5t-5 4t-3 7.5t-0.5 12t1 16q3 17 18 59t18 52
q15 56 -29 100.5t-72 65.5q-19 15 -27 25.5t-8.5 16.5t9 11t17 7t25.5 6q14 3 54 5t53 5q29 8 42.5 20t31.5 48q21 43 36 71q30 58 61 -1q5 -11 18.5 -35.5t19.5 -36.5q18 -35 30.5 -47t39.5 -18q7 -1 37.5 -7t58 -11.5t42.5 -9.5q8 -2 22 0q8 0 8 -2q0 -3 -45 -45l-1 -2
q-7 -6 -37.5 -32t-37.5 -34l-7 -6l-8 -8q-1 -2 -5.5 -9t-5.5 -13l-3 -15q-1 -9 0.5 -20.5t4.5 -25.5zM134 428q-4 -29 54 -79q39 -34 67 -62l7 -7q8 -6 11 -9.5t8.5 -13.5t7 -20.5t1 -28.5t-5.5 -38q-2 -9 -15.5 -56.5t-16.5 -70.5q-5 -29 0 -45q-12 10 -23 21
q-82 82 -107 194.5t12 214.5zM278 -23q22 0 72 22q17 8 49 25t44 22q41 19 69.5 19t68.5 -18q15 -7 48 -24t48 -24q42 -20 65 -20q-103 -75 -231.5 -75.5t-232.5 73.5zM790 19q-7 -7 -15 -14q3 15 -1 38q-3 22 -17.5 66.5t-17.5 60.5q-4 16 -5 29.5t-2 23t1.5 18t3 13
t5.5 11t6 7.5l8 8q6 6 7 8q11 10 37.5 32.5t33.5 28.5q52 47 52 75q35 -102 10 -213t-106 -192z" />
    <glyph glyph-name="uniE64A" unicode="&#xe64a;" 
d="M709 316q-10 0 -17 -7t-7 -17t7 -17.5t17 -7.5t17 7.5t7 17.5t-7 17t-17 7zM645 381q-10 0 -17 -7.5t-7 -17.5t7 -17t17 -7t17 7t7 17t-7 17.5t-17 7.5zM709 445q-10 0 -17 -7t-7 -17t7 -17t17 -7t17 7t7 17t-7 17t-17 7zM686 606q-15 0 -46 -16t-67 -32t-63.5 -16
t-64 16t-67.5 32t-44 16q-100 0 -181 -139q-71 -124 -87 -274q-15 -142 36 -186q17 -14 40 -14q44 0 80.5 16.5t64 41.5t56 50.5t71.5 45.5t96 25q44 -5 89 -25t81.5 -45t70.5 -49.5t66.5 -41t58.5 -16.5q65 0 77 103q14 114 -38 262q-56 160 -145 219q-41 27 -84 27z
M876 58q-26 0 -60 16.5t-69.5 40t-73 47.5t-81 40.5t-82.5 16.5q-49 0 -93 -18t-76.5 -44.5t-63 -52.5t-65 -44t-70 -18t-34.5 96q2 122 53 249q62 150 150 169q12 2 23.5 2t78 -31.5t97.5 -31.5q30 0 95.5 31.5t79.5 31.5q85 0 154 -140q58 -119 68 -248q5 -105 -31 -112z
M749 356q0 -10 7 -17t17 -7t17 7t7 17t-7 17.5t-17 7.5t-17 -7.5t-7 -17.5zM334 445q-33 0 -56.5 -23.5t-23.5 -57t23.5 -57t56.5 -23.5t56.5 23.5t23.5 57t-23.5 57t-56.5 23.5z" />
    <glyph glyph-name="uniE64B" unicode="&#xe64b;" 
d="M859 233q-15 0 -28 -2v99q0 87 -41.5 160t-115 116t-163 43t-163 -43t-115 -116t-41.5 -160v-100q-13 3 -29 3q-46 0 -72 -31.5t-26 -79.5v-66q0 -47 26 -78.5t72 -31.5q42 0 67.5 23.5t25.5 40.5v320q0 48 17 93.5t48.5 81.5t81 58t109.5 22t109.5 -22t80.5 -58
t48 -81.5t17 -93.5v-320q0 -17 25 -40.5t67 -23.5q47 0 73.5 31.5t26.5 78.5v66q0 48 -27 79.5t-73 31.5zM288 170q-4 0 -4 -6t2 -15t2 -11v-96q0 -2 -2 -11t-2 -15t4 -6q7 0 19.5 13t12.5 19v96q0 8 -9.5 20t-22.5 12zM736 170q-7 0 -19.5 -13t-12.5 -19v-96q0 -6 12.5 -19
t19.5 -13q3 0 3 6t-1.5 15t-1.5 11v96q0 2 1.5 11t1.5 15t-3 6z" />
    <glyph glyph-name="uniE64C" unicode="&#xe64c;" 
d="M792 11v708q0 12 -8.5 21t-20.5 9h-630q-12 0 -20.5 -9t-8.5 -21v-708q0 -13 8.5 -21.5t20.5 -8.5h630q12 0 20.5 8.5t8.5 21.5zM734 40h-572v650h572v-650zM889 621q-12 0 -20.5 -9t-8.5 -21v-679h-611q-12 0 -20.5 -8.5t-8.5 -20.5t8.5 -21t20.5 -9h640q12 0 20.5 9
t8.5 21v708q0 12 -8.5 21t-20.5 9zM267 464h122q13 0 20.5 2t14 11t6.5 27v82q1 20 -13 30.5t-28 10.5h-122q-41 0 -41 -41v-82q0 -40 41 -40zM511 586h122h3q40 0 40 15q0 12 -8.5 21t-20.5 9l-136 -4q-12 0 -26.5 -14.5t-14.5 -26.5q0 -2 6.5 -2t18 1t16.5 1zM633 504
h-122q-12 0 -15.5 -4t-3.5 -17q0 -12 3.5 -15.5t15.5 -3.5h122q43 0 43 19q0 11 -13.5 16t-29.5 5zM249 335h398q12 0 20.5 9t8.5 21t-8.5 20.5t-20.5 8.5h-398q-12 0 -20.5 -8.5t-8.5 -20.5t8.5 -21t20.5 -9zM249 217h398q12 0 20.5 9t8.5 21t-8.5 20.5t-20.5 8.5h-398
q-12 0 -20.5 -8.5t-8.5 -20.5t8.5 -21t20.5 -9zM249 99h398q12 0 20.5 9t8.5 21t-8.5 20.5t-20.5 8.5h-398q-12 0 -20.5 -8.5t-8.5 -20.5t8.5 -21t20.5 -9z" />
    <glyph glyph-name="uniE64D" unicode="&#xe64d;" 
d="M843 331h111v240q0 38 -33.5 69.5t-73.5 31.5h-265q5 -9 12.5 -24.5t34 -59t54.5 -84t71.5 -89.5t88.5 -84zM886 334q-20 5 -33 0q-25 24 -50 56.5t-43.5 61.5t-33.5 54.5t-23 40.5l-8 16q15 -20 37.5 -51t73.5 -93.5t80 -84.5zM515 64q14 0 24 10t10 24t-10 24t-24 10
t-24 -10t-10 -24t10 -24t24 -10zM181 331q44 36 87.5 84t74.5 91.5t55.5 81.5t36.5 61l12 23h-275q-40 0 -68 -31t-28 -70v-45v-90q0 -55 1 -105h104zM326 579q-10 -18 -28.5 -46.5t-67 -94.5t-86.5 -104h-34q29 22 83 83.5t94 111.5t39 50zM941 299h-71q-7 0 -11.5 -4.5
t-4.5 -11t4.5 -11t11.5 -4.5h71q6 0 11 4.5t5 11t-5 11t-11 4.5zM920 -3h-810q-11 0 -22.5 -12t-11.5 -22.5t11.5 -22t22.5 -11.5h810q11 0 22.5 11.5t11.5 22t-11.5 22.5t-22.5 12zM920 64h-34l18 175h-46q-1 -3 -1 -5q-2 -7 -15 -49t-19 -71.5t-4 -49.5q1 -13 8.5 -19.5
t16 -9t9.5 -5.5h67h4h4q1 0 4.5 0.5t5 1t4 2t4 3t3.5 4t2.5 6t1.5 8t1 9.5v175h-50zM158 283q0 7 -5 11.5t-11 4.5h-63q-6 0 -11 -4.5t-5 -11.5q0 -5 0.5 -7.5t2.5 -4t6 -1.5h64q7 0 14.5 3.5t7.5 9.5zM346 98q0 -14 10 -24t24 -10t24 10t10 24t-10 24t-24 10t-24 -10
t-10 -24zM77 239q0 -107 -1 -175q0 -12 2 -19t7.5 -10t10 -4t14.5 -1h34q6 1 16 2t14.5 1.5t11.5 1.5t9.5 2.5t6.5 3.5t5.5 5t2.5 7.5t1 10.5q0 26 -27.5 92t-30.5 78q-1 2 -1 5h-28l20 -175h-34l14 175h-47zM616 98q0 -14 10 -24t24 -10t24 10t10 24t-10 24t-24 10t-24 -10
t-10 -24z" />
    <glyph glyph-name="uniE64E" unicode="&#xe64e;" 
d="M737 160q-48 0 -84 -30l-222 118q2 9 2 19q0 18 -5 37l227 150q34 -25 77 -25q55 0 93.5 37.5t38.5 90t-38.5 90t-93 37.5t-93 -37.5t-38.5 -89.5q0 -5 1 -10l-230 -168q-35 24 -77 24q-58 0 -98.5 -40t-40.5 -96.5t40.5 -96t98.5 -39.5q48 0 86 29l229 -115q-1 -3 -1 -6
q0 -50 37.5 -85.5t90.5 -35.5t90.5 35.5t37.5 85.5t-37.5 85.5t-90.5 35.5z" />
    <glyph glyph-name="uniE64F" unicode="&#xe64f;" 
d="M512 667l119 -240l266 -39l-193 -187l46 -265l-238 125l-237 -125l45 265l-192 187l265 39z" />
    <glyph glyph-name="uniE650" unicode="&#xe650;" 
d="M537 685h-55h-55h-109q-69 0 -117 -50t-48 -120v-113v-57v-57q0 -47 32 -80t78 -33h55h68q25 -13 34 -41.5t8.5 -61.5t0 -65t12.5 -57.5t41 -33.5q15 -3 24 19.5t15 60t12.5 76.5t22 73t38.5 46q3 1 5 3q48 34 48 94v57v170v57q0 47 -32 80t-78 33zM812 685h-55
q-23 0 -39 -16.5t-16 -40.5v-397q0 -23 16 -39.5t39 -16.5h55q23 0 39 16.5t16 39.5v397q0 24 -16 40.5t-39 16.5z" />
    <glyph glyph-name="uniE651" unicode="&#xe651;" 
d="M755 427h-124q-24 13 -33.5 41.5t-9 61t0 65t-12.5 57.5t-41 34q-15 3 -24 -20t-14.5 -60t-12.5 -76t-22 -73t-39 -46q-3 -2 -4 -3q-49 -34 -49 -94v-284q0 -47 32.5 -80t77.5 -33h220q68 0 116 50t48 120v227q0 47 -32 80t-77 33zM260 427h-54q-23 0 -39 -16.5
t-16 -40.5v-396q0 -24 16 -40.5t39 -16.5h54q23 0 39 16.5t16 40.5v396q0 24 -16 40.5t-39 16.5z" />
    <glyph glyph-name="uniE652" unicode="&#xe652;" 
d="M526 208l193 220h-138v220h-110v-220h-137zM829 210l-83 -131v21h-439v-22l-83 132l-82 -27l110 -193h494h83l82 193z" />
    <glyph glyph-name="uniE653" unicode="&#xe653;" 
d="M724 428l-191 219l-192 -219h137v-215h109v215h137zM827 209l-82 -131v21h-438v-22l-82 132l-82 -28l110 -191h492h82l82 191z" />
    <glyph glyph-name="uniE654" unicode="&#xe654;" 
d="M724 701h-413q-25 0 -42.5 -17.5t-17.5 -41.5v-650q0 -25 17.5 -42t42.5 -17h413q25 0 42 17t17 42v650q0 24 -17 41.5t-42 17.5zM517.5 -8q-12.5 0 -21 8.5t-8.5 21t8.5 21t21 8.5t21 -8.5t8.5 -21t-8.5 -21t-21 -8.5zM724 110h-413v532h413v-532z" />
    <glyph glyph-name="uniE655" unicode="&#xe655;" 
d="M659 564q-13 0 -67 -27.5t-84 -27.5t-84.5 27.5t-65.5 27.5q-89 0 -159 -126q-62 -113 -72 -243q-9 -122 41 -150q11 -6 26 -6q37 0 68 14t55 35.5t48.5 43t61 39t81.5 21.5q46 -5 95 -29.5t83 -51.5t71.5 -48.5t64.5 -21.5q58 0 67 95q10 106 -40 235q-54 140 -136 180
q-26 13 -54 13zM357.5 288q-28.5 0 -48.5 20t-20 49t20 49t48.5 20t48.5 -20t20 -49t-20 -49t-48.5 -20zM624 329q-8 0 -14 6t-6 15t6 15t14 6t14 -6t6 -15t-6 -15t-14 -6zM678.5 274q-8.5 0 -14.5 6t-6 14.5t6 14.5t14.5 6t14.5 -6t6 -14.5t-6 -14.5t-14.5 -6zM678.5 384
q-8.5 0 -14.5 6.5t-6 15t6 14.5t14.5 6t14.5 -6t6 -14.5t-6 -15t-14.5 -6.5zM733.5 329q-8.5 0 -14.5 6t-6 15t6 15t14.5 6t14.5 -6t6 -15t-6 -15t-14.5 -6z" />
    <glyph glyph-name="uniE656" unicode="&#xe656;" 
d="M411 154l170 163l-172 165q-9 9 -9 22t4 17t17 4q14 0 23 -9l183 -177q10 -9 10 -22v0q0 -13 -10 -23l-183 -176q-10 -9 -23 -9t-17 4t-4 17q0 14 11 24zM506 -51q-100 0 -184.5 49t-133.5 133.5t-49 184t49 184t133.5 134t184 49.5t184 -49.5t134 -134t49.5 -184
t-49.5 -184t-134 -133.5t-183.5 -49zM506 630q-130 0 -222 -92t-92 -222t92 -222t222 -92t222 92t92 222t-92 222t-222 92zM543 315z" />
    <glyph glyph-name="uniE657" unicode="&#xe657;" 
d="M721 -94h1v1q52 27 96 67q0 1 1 2l1 1q62 58 97 134q46 97 43 205v2v2q-4 97 -47 183q-2 2 -2 3v0q-28 55 -70 100q-1 1 -2 3h-1q-64 69 -151 105h-1l-1 1q-79 33 -166 34h-4h-2h-2h-4q-87 -1 -167 -34v-1h-1q-86 -36 -151 -105q-1 0 -1 -1q-1 -1 -2 -1q-40 -44 -67 -96
v-1h-1l-1 -2q-50 -96 -50 -204v-2v-2q0 -94 38 -180l1 -1v-1v0q37 -82 104 -144q1 -1 3 -2v-1q42 -38 91 -64l2 -1h1v-1q96 -50 205 -50h2h2q109 0 204 50zM685 13q-1 -1 -4 -3q-2 -1 -3 -1q-1 -1 -3 -2q-3 -1 -4 -2l-1 -1h-1q-3 -2 -5 -3q-70 -35 -148 -36h-3h-3
q-79 1 -148 36l-6 3l-1 1q-1 0 -4 1.5t-3 2.5q-1 0 -3 1q-3 2 -4 3h-1l173 205l173 -205h-1zM256 85q-20 24 -36 50v1q-1 2 -3 5v1l-1 1q0 1 -1.5 3.5t-2.5 3.5l-1 2q-1 4 -2 6q-32 67 -33 141v3v3q1 70 29 134q1 0 1 1q1 2 2 5q1 2 1.5 2.5t1.5 2.5q1 3 2 5l1 1
q17 34 42 63v1q1 1 2 1l184 -219l-184 -219q-1 0 -2 1v1zM381 612q1 0 4 1t3 2h2l1 1q3 1 4 1t1 1q55 20 113 21h4h3q59 -1 114 -21q0 -1 1 -1t4 -1l3 -1l3 -2q3 -1 4 -2h1q21 -9 40 -20l-173 -205l-173 205q19 11 40 20zM770 520l1 -2q2 -3 4 -5q12 -15 23 -31v-1
q1 -2 3 -5l1 -2q1 -2 3 -4l1 -3l2 -3l2 -4l1 -1l3 -6q35 -70 35 -148v-3v-3q0 -86 -42 -160v-1q-1 -2 -3 -5l-1 -2q-1 -2 -2.5 -4t-2.5 -3q0 -1 -1 -3q-2 -2 -3 -4l-1 -2q-2 -2 -3 -5q-1 0 -1 -1q-2 -3 -4 -5v-1l-5 -5v-1q-2 -3 -4 -5v-1h-1q-2 -2 -4 -5l-1 -2h-2v-1
l-184 219l184 219v-1h2z" />
    <glyph glyph-name="uniE658" unicode="&#xe658;" 
d="M767 -83v-64h-511v64h-64v766h64v64h511v-64h63v-766h-63zM447 -83h128v64h-128v-64zM575 683h-128v-64h128v64zM703 555h-383v-510h383v510z" />
    <glyph glyph-name="uniE659" unicode="&#xe659;" 
d="M638 749q-93 0 -158.5 -65t-65.5 -158t65.5 -158.5t158.5 -65.5t158 65.5t65 158.5t-65 158t-158 65zM542.5 494q-26.5 0 -45.5 18.5t-19 45t19 45.5t45.5 19t45 -19t18.5 -45.5t-18.5 -45t-45 -18.5zM638 47q-40 0 -68 -28t-28 -68t28 -68t68 -28t68 28t28 68t-28 68
t-68 28zM287 302q-53 0 -90.5 -37t-37.5 -90t37.5 -90.5t90.5 -37.5t90 37.5t37 90.5t-37 90t-90 37z" />
    <glyph glyph-name="uniE65A" unicode="&#xe65a;" 
d="M896 140v-64h-320v-64h256q26 0 45 -18.5t19 -45.5v-64h-320h-128h-320v64q0 27 18.5 45.5t45.5 18.5h256v64h-320v64h-64v512h64v64h768v-64h64v-512h-64zM832 588h-640v-384h256h128h256v384z" />
    <glyph glyph-name="uniE65B" unicode="&#xe65b;" 
d="M836 213l-549 -344v1q-6 -4 -12 -7h-1q-7 -3 -13 -5q-4 -1 -6 -2h-1q-4 -1 -7 -1h-1q-4 -1 -6 -1h-1h-7q-41 0 -67 36t-26 82v0v659q0 46 26 82.5t67 36.5q32 0 58 -18l545 -340q24 -14 38 -38t14 -52t-14 -52t-37 -37z" />
    <glyph glyph-name="uniE65C" unicode="&#xe65c;" 
d="M513 749q-91 0 -174 -35.5t-142.5 -95.5t-95 -142.5t-35.5 -173.5t35.5 -174t95 -143t142.5 -95t174 -35t173.5 35t142.5 95t95.5 143t35.5 174t-35.5 173.5t-95.5 142.5t-142.5 95.5t-173.5 35.5zM699 300q-13 -8 -140 -85.5t-139 -85.5q-10 -5 -31 11t-21 29v298
q0 13 20.5 29.5t31.5 9.5q56 -34 279 -170q10 -6 10 -18t-10 -18z" />
    <glyph glyph-name="uniE65D" unicode="&#xe65d;" 
d="M642 -146l-514 304l-5 231l519 359v-894zM179 188l411 -243v704l-415 -287zM693 464l56 1q6 -3 16 -8.5t36.5 -24.5t46.5 -41t36 -57t16 -73q0 -27 -9 -53.5t-23 -47t-31 -39t-34.5 -32t-31.5 -22.5t-23 -14l-9 -5l-45 3l-2 50q7 2 17.5 6.5t38 19.5t48 32t37.5 44.5
t16 56.5q0 41 -16.5 71.5t-39.5 45t-45.5 23.5t-38.5 10l-16 2v52z" />
    <glyph glyph-name="uniE65E" unicode="&#xe65e;" 
d="M510 -143q-90 0 -172 35t-141 94.5t-94.5 141.5t-35.5 172t35.5 172t94.5 141.5t141 94.5t172 35t172 -35t141.5 -94.5t94.5 -141.5t35 -172t-35 -172t-94.5 -141.5t-141.5 -94.5t-172 -35zM510 680q-103 0 -190.5 -51t-138 -138.5t-50.5 -190.5t50.5 -190.5t138 -138.5
t190.5 -51t190.5 51t138.5 138.5t51 190.5t-51 190.5t-138.5 138.5t-190.5 51zM368 115v380l380 -190z" />
    <glyph glyph-name="uniE65F" unicode="&#xe65f;" 
d="M907 -151h-59v6v8q0 89 -45 163.5t-122.5 118t-169 43.5t-169.5 -43.5t-123 -118t-45 -163.5q0 -3 0.5 -8t0.5 -6h-60q0 120 70.5 217.5t182.5 139.5q-72 38 -115 106.5t-43 149.5q0 121 88.5 206.5t213 85.5t212.5 -85.5t88 -206.5q0 -81 -43 -149.5t-115 -106.5
q113 -42 183 -139.5t70 -217.5zM749 462.5q0 95.5 -69.5 162.5t-168 67t-168 -67t-69.5 -162.5t69.5 -163t168 -67.5t168 67.5t69.5 163z" />
    <glyph glyph-name="uniE660" unicode="&#xe660;" 
d="M958 433.5q-5 15.5 -22 17.5l-283 29l-117 241q-7 15 -24 15t-24 -15l-117 -241l-283 -29q-17 -2 -22.5 -17.5t7.5 -26.5q38 -31 90.5 -75.5t86.5 -73.5l33 -29l-57 -259q-4 -16 10 -25.5t29 -1.5l247 131l247 -131q15 -8 28.5 1.5t10.5 25.5l-57 259l210 178
q12 11 7 26.5zM755 355l-116 -98l31 -144q2 -9 -5.5 -14t-15.5 -1l-137 73q-82 -44 -137 -72q-8 -5 -15.5 0t-6.5 14l32 144q-70 59 -116 99q-7 6 -4 14t12 9l157 17l64 133q4 8 13.5 8t13.5 -8l65 -133q94 -10 157 -17q9 -1 12 -9t-4 -15z" />
    <glyph glyph-name="uniE661" unicode="&#xe661;" 
d="M508 606q-56 0 -110.5 -17t-97 -44t-81 -59.5t-66 -64.5t-48 -59.5t-30.5 -43.5t-10 -17q3 -7 10 -17.5t30 -42.5t48 -60.5t65 -64t82 -60.5t97 -42.5t111 -17.5q52 0 105.5 17t96.5 44t83 59.5t69.5 65t52 59t33.5 43.5l11 17q-4 6 -11.5 17t-32.5 42.5t-52 60.5t-69 64
t-84 60.5t-95.5 43t-106.5 17.5zM510 164q-56 0 -95.5 40t-39.5 96.5t39.5 96.5t95.5 40t96 -40t40 -96.5t-40 -96.5t-96 -40zM511 369q-28 0 -47.5 -20t-19.5 -48t19.5 -48t47.5 -20t47.5 20t19.5 48t-19.5 48t-47.5 20z" />
    <glyph glyph-name="uniE662" unicode="&#xe662;" 
d="M543.5 647q-111.5 0 -206.5 -40t-150 -109t-55 -150q0 -73 45 -136.5t124 -105.5l-21 -36q-20 -37 -40 -73l-21 -36q248 92 249 93q37 -5 75 -5q112 0 207 40t150 109t55 150t-55 150t-150 109t-206.5 40zM345.5 316q-13.5 0 -23 9.5t-9.5 22.5t9.5 22.5t23 9.5t23 -9.5
t9.5 -22.5t-9.5 -22.5t-23 -9.5zM476.5 315q-13.5 0 -23.5 9t-10 22.5t10 23t23.5 9.5t23 -9.5t9.5 -23t-9.5 -22.5t-23 -9zM608.5 315q-13.5 0 -23 9t-9.5 22.5t9.5 23t23 9.5t23 -9.5t9.5 -23t-9.5 -22.5t-23 -9zM739.5 315q-13.5 0 -23 9t-9.5 22.5t9.5 23t23 9.5
t23 -9.5t9.5 -23t-9.5 -22.5t-23 -9z" />
    <glyph glyph-name="uniE663" unicode="&#xe663;" 
d="M821 392h-69v69h-3q3 17 3 35q0 100 -70.5 170.5t-170.5 70.5t-170.5 -70.5t-70.5 -170.5q0 -18 2 -35h-2v-69h-69q-29 0 -49 -20t-20 -49v-413q0 -29 20 -49t49 -20h620q28 0 48.5 20t20.5 49v413q0 29 -20.5 49t-48.5 20zM614 392h-207v138q0 29 20.5 49t48.5 20h69
q29 0 49 -20t20 -49v-138z" />
    <glyph glyph-name="uniE664" unicode="&#xe664;" 
d="M931 584l-131 131q-2 3 -5.5 7t-15 12.5t-23.5 12t-29 -1t-33 -20.5l-482 -484l240 -238l481 483q2 2 5.5 5t9.5 13.5t8 21t-3.5 26.5t-21.5 32zM116 51l147 -145l141 49l-236 240zM64 -145l134 18l-110 113z" />
    <glyph glyph-name="uniE665" unicode="&#xe665;" 
d="M903 300v112h-56v56h-56v-112h-56v56h-56v56h-56v-112h-112v223h-439h-8v-559h447v168h448v112h-56zM343 132h-167v336h167v-336zM847 244h-336v56h336v-56z" />
    <glyph glyph-name="uniE666" unicode="&#xe666;" 
d="M78 737v-870h870v870h-870zM236 -54h-79v79h79v-79zM236 65h-79v79h79v-79zM236 183h-79v79h79v-79zM236 342h-79v79h79v-79zM236 460h-79v80h79v-80zM236 579h-79v79h79v-79zM711 -54h-396v316h396v-316zM711 342h-396v316h396v-316zM869 -54h-79v79h79v-79zM869 65h-79
v79h79v-79zM869 183h-79v79h79v-79zM869 342h-79v79h79v-79zM869 460h-79v80h79v-80zM869 579h-79v79h79v-79z" />
    <glyph glyph-name="uniE667" unicode="&#xe667;" 
d="M513 805q-103 0 -197 -40.5t-161.5 -108t-107.5 -161.5t-40 -197t40 -196.5t107.5 -161.5t161.5 -108t197 -40t196.5 40t161.5 108t108 161.5t40 196.5t-40 197t-108 161.5t-161.5 108t-196.5 40.5zM598 636l-24 -478h-122l-25 478h171zM510 -70q-39 0 -62 24.5t-23 60.5
q0 38 24 62t62 24t61.5 -24t23.5 -62q0 -37 -24 -61t-62 -24zM509 -151z" />
    <glyph glyph-name="uniE668" unicode="&#xe668;" 
d="M518 573q-69 0 -118 -49t-49 -118q0 -4 2 -17l88 14q0 1 -0.5 3t-0.5 4q0 31 22 53.5t54 22.5t54 -22.5t22 -53.5q0 -24 -13 -43t-34 -28q-8 -5 -20.5 -15.5t-35.5 -41t-33 -63.5v-2l-1 -1q0 -3 -1 -8v-5l94 -1q4 21 18 37t34 22h1q50 29 73 88h-1q11 29 11 57
q0 69 -48.5 118t-117.5 49zM515.5 779q-97.5 0 -186 -38t-152.5 -102t-102 -153t-38 -186t38 -186t102 -153t152.5 -102t186 -38t186 38t152.5 102t102 153t38 186t-38 186t-102 153t-152.5 102t-186 38zM517 -63q-99 0 -183 49t-133 133t-49 183t49 183t133 132.5t183 48.5
t183 -48.5t133 -132.5t49 -183t-49 -183t-133 -133t-183 -49zM518 142q-24 0 -41 -17t-17 -41t17 -41t41 -17t41 17t17 41t-17 41t-41 17z" />
    <glyph glyph-name="uniE669" unicode="&#xe669;" 
d="M960 354l-439 323l-455 -322l62 -59l53 37v-401h680v390l38 -29zM789 372v-372h-537v372h-16l286 205l272 -205h-5z" />
    <glyph glyph-name="uniE66A" unicode="&#xe66a;" 
d="M704 492h192v192h-64v-79q-46 72 -134 107.5t-199 35.5q-121 0 -223 -60t-160.5 -163t-58.5 -225q0 -91 36.5 -174t97 -143t144 -95.5t174.5 -35.5q108 0 203 49t158 133l-52 36q-53 -71 -133.5 -112.5t-172.5 -41.5q-105 0 -193.5 51.5t-139.5 140t-51 192.5t51.5 193.5
t140 141t192.5 50.5q31 0 58.5 -3.5t47.5 -8t40.5 -14t33 -15.5t30 -20t25.5 -21t26 -23.5t25 -23.5h-94v-64zM858 540v-2h-2z" />
    <glyph glyph-name="uniE66B" unicode="&#xe66b;" 
d="M989 425h-357l134 133q-51 51 -116 78t-136.5 27t-136.5 -27t-115.5 -77.5t-77.5 -115.5t-27 -136.5t27 -137t77.5 -116t115.5 -77.5t136.5 -27t136.5 27t116 78q8 8 16 17l89 -78q-66 -76 -159 -119t-199 -43q-96 0 -184 37.5t-152 101t-101.5 151.5t-37.5 185t37.5 185
t101.5 151.5t152 101.5t184.5 38t183.5 -37t153 -103l139 140v-357z" />
    <glyph glyph-name="uniE66C" unicode="&#xe66c;" 
d="M128 300q0 -104 51.5 -192t139.5 -139.5t192 -51.5t192.5 51.5t139.5 139.5t51 192t-51 192.5t-139.5 139.5t-192.5 51t-192 -51t-139.5 -139.5t-51.5 -192.5zM479 236v318q0 9 7 15.5t17 6.5t17 -6t7 -16v-269h176q7 0 13 -8.5t6 -16.5t-6.5 -16t-12.5 -8h-224z" />
    <glyph glyph-name="uniE66D" unicode="&#xe66d;" 
d="M374 704l83 -104q26 4 52 4q30 0 60 -6l85 102l51 -22l-14 -132q46 -33 77 -80l132 11l21 -52l-102 -83q10 -57 -1 -114l100 -84l-22 -52l-128 14q-33 -49 -83 -83l11 -128l-52 -20l-78 98q-29 -5 -58 -5q-32 0 -62 6l-81 -96l-51 22l13 125q-50 35 -83 87l-125 -11
l-21 52l99 80q-10 60 2 119l-98 83l22 51l129 -14q34 48 82 80l-11 131zM514 135q61 0 104.5 44t43.5 105.5t-43 105.5t-104.5 44t-105 -44t-43.5 -105.5t43.5 -105.5t104.5 -44zM374 740q-7 0 -13 -3l-51 -20q-11 -5 -17.5 -15t-5.5 -22l9 -111q-34 -26 -61 -59l-108 12h-4
q-24 0 -33 -22l-22 -51q-10 -25 10 -42l82 -70q-7 -44 -2 -88l-83 -68q-20 -17 -11 -41l21 -52q9 -23 34 -23h3l104 9q28 -37 63 -66l-11 -104q-1 -12 5 -22.5t17 -14.5l51 -22q6 -3 14 -3q17 0 27 13l68 80q24 -3 48 -3q21 0 42 2l66 -82q11 -14 28 -14q8 0 14 3l51 21
q11 4 17.5 14.5t5.5 21.5l-9 108q35 27 62 62l107 -12h4q24 0 33 22l22 51q10 25 -10 42l-84 71q5 43 0 85l86 70q21 17 11 42l-20 51q-9 23 -34 23h-3l-111 -9q-26 33 -57 58l12 112q1 12 -5 22.5t-17 15.5l-51 22q-7 3 -14 3q-17 0 -28 -13l-72 -86q-22 3 -45 3
q-18 0 -36 -2l-71 87q-10 14 -28 14zM514 171q-46 0 -79 33.5t-33 80t32.5 80t79.5 33.5t80 -33.5t33 -80t-33 -80t-80 -33.5z" />
    <glyph glyph-name="uniE66E" unicode="&#xe66e;" 
d="M512 716q-172 0 -294 -122t-122 -294t122 -294t294 -122t294 122t122 294t-122 294t-294 122zM544 76h-64v64h64v-64zM537 172h-55l-10 320h77z" />
    <glyph glyph-name="uniE66F" unicode="&#xe66f;" 
d="M311 399h50v50h-50v49h-49v-397h49v49h50v50h-50v199zM659 399h50v50h-50v-50zM659 200v50h-49v-50h49zM709 150v50h-50v-50h50zM411 250h49v99h-49v-99zM610 349h49v50h-49v-50zM560 250h50v99h-50v-99zM808 200v-50h50v50h-50zM759 250v-50h49v50h-49zM808 399h-49v-50
h49v50zM709 349v-99h50v99h-50zM709 51h-597v497h597v-99h50v149h-696v-597h696v149h-50v-99zM908 548v-50h-50v-49h50v-299h-50v-49h50v-50h49v497h-49zM858 449h-50v-50h50v50zM361 200h50v50h-50v-50zM411 349v50h-50v-50h50z" />
    <glyph glyph-name="uniE670" unicode="&#xe670;" 
d="M866 408l-232 223l54 52q39 37 93.5 37t92.5 -37l47 -45q38 -37 38 -89.5t-38 -89.5zM820 363l-383 -363l-231 221l381 365zM327 -107h-263l-1 191l97 92l233 -220z" />
    <glyph glyph-name="uniE671" unicode="&#xe671;" 
d="M907 699l-368 -158h-52l-368 158h-53v-630h53l368 -158h52l368 158h52v630h-52zM487 -36l-368 157v525l368 -157v-525zM907 121l-368 -157v525l368 157v-525zM434 384l-263 105v-53l263 -105v53zM434 174l-263 105v-53l263 -105v53zM854 489l-262 -105v-53l262 105v53z
M854 279l-262 -105v-53l262 105v53z" />
    <glyph glyph-name="uniE672" unicode="&#xe672;" 
d="M941 433v48h-626v48l9 22l-241 97l-18 -45l202 -81v-426h13q-13 -23 -13 -49q0 -39 28 -67.5t68 -28.5t68 28.5t28 67.5q0 26 -13 49h171q-13 -23 -13 -49q0 -39 28 -67.5t68 -28.5t68 28.5t28 67.5q0 27 -13 49t-35 35v13h-433v48h433l19 -15l12 15h17v22l164 204z
M700 96q20 0 34 -14.5t14 -34t-14 -34t-34 -14.5t-34 14.5t-14 34t14 34t34 14.5zM363 96q20 0 34 -14.5t14 -34t-14 -34t-34 -14.5t-34 14.5t-14 34t14 34t34 14.5zM756 240h-441v193h595z" />
    <glyph glyph-name="uniE673" unicode="&#xe673;" 
d="M860 291l-8 -3q-4 -1 -5 -1q-1 -56 -20 -108q0 -1 1 -1q16 -13 47 -38.5t45 -36.5l-41 -71q-17 6 -54 20.5t-55 22.5h-2q-37 -45 -88 -75v-2q4 -20 12 -60.5t11 -56.5l-77 -28q-6 13 -26 49.5t-30 54.5l-1 2q-31 -5 -58 -5t-57 5q-1 0 -1 -1v-1q-10 -18 -29.5 -54
t-27.5 -50l-76 28q3 15 11 56t12 61v2q-51 30 -89 75h-1q-18 -8 -55 -22.5t-54 -20.5l-41 71q13 11 44.5 36.5t46.5 38.5q1 0 2 1q-19 52 -20 108q-1 0 -6 1.5t-7 2.5q-74 24 -100 42l14 81q28 8 96 6q9 0 26 -1q18 48 50 89q-10 15 -14 22q-35 59 -43 87l62 53
q27 -13 77 -58q4 -4 19 -18q45 25 95 35q2 17 4 26q10 68 22 95h81q12 -27 22 -95q1 -9 3 -26q51 -10 95 -35q15 13 20 18q50 45 76 58l62 -53q-7 -28 -43 -87q-4 -7 -13 -22q31 -41 50 -89q17 1 26 1q68 2 95 -6l14 -81q-25 -18 -99 -42zM511 524q-93 0 -158.5 -65.5
t-65.5 -158.5t65.5 -159t158.5 -66t158.5 66t65.5 159t-65.5 158.5t-158.5 65.5z" />
    <glyph glyph-name="uniE674" unicode="&#xe674;" 
d="M66 -119v834h890v-834h-890zM733 159v111h-444v-111v-56v-167h444v167v56zM122 -64h111v167h-111v-167zM122 159h111v111h-111v-111zM122 325h111v112h-111v-112zM900 659h-778v-167h111v167h56v-167v-55v-112h444v112v55v167h56v-167h111v167zM900 437h-111v-112h111
v112zM900 270h-111v-111h111v111zM900 103h-111v-167h111v167z" />
    <glyph glyph-name="uniE675" unicode="&#xe675;" 
d="M958 413l-305 38l-141 297l-139 -297l-307 -38l220 -234l-53 -323l280 154l278 -154l-52 323zM512 75l-217 -120l41 251l-171 183l239 29l108 231l109 -231l238 -29l-170 -183l40 -251z" />
    <glyph glyph-name="uniE676" unicode="&#xe676;" 
d="M901 -142h-55q0 87 -45.5 164.5t-123 124t-167.5 46.5t-168 -46.5t-123 -123.5t-45 -165h-56q0 119 69.5 215t180.5 138q-67 35 -102.5 106t-35.5 156q0 120 79 200t201 80t201 -80t79 -200q0 -85 -35.5 -156t-102.5 -106q111 -42 180 -138t69 -215zM734 473
q0 95 -63.5 159.5t-160.5 64.5t-160.5 -64.5t-63.5 -159.5t63.5 -159.5t160.5 -64.5t160.5 64.5t63.5 159.5z" />
    <glyph glyph-name="uniE677" unicode="&#xe677;" 
d="M510 722l-446 -408l33 -37l66 63v-411h198h50v248h198v-248h50h198v421l64 -60l35 35zM807 -21h-148v247h-298v-247h-148v408l297 285l297 -276v-417z" />
    <glyph glyph-name="uniE678" unicode="&#xe678;" 
d="M241 2v-59h538v59h-538zM62 182l120 -239h59l-119 239h-60zM899 182l-120 -239h60l119 239h-59zM719 301h-179v359h-60v-359h-179l209 -157z" />
    <glyph glyph-name="uniE679" unicode="&#xe679;" 
d="M957 663q0 -1 -15.5 -1t-46.5 0.5t-50 0.5h-781q2 0 2 -14t-1 -45t-1 -53v-502v-112h893v112v614zM901 -7q0 -2 -8 -2t-23.5 1t-24.5 1h-725q-2 0 -2 8t1 23.5t1 24.5v502h56v56h669v-56h56v-558zM343 384v-56h56v56h-56zM231 495v-56h56v56h-56zM287 439v-55h56v55h-56z
M790 495h55v56h-55v-56zM734 439h56v56h-56v-56zM678 384h56v55h-56v-55zM622 328h56v56h-56v-56zM566 272h56v56h-56v-56zM399 328v-56h56v56h-56zM455 216h111v56h-111v-56zM231 495v56h-55v-56h55z" />
    <glyph glyph-name="uniE67A" unicode="&#xe67a;" 
d="M606 353q-18 0 -30.5 -12t-12.5 -28t12.5 -27.5t30.5 -11.5t30.5 11.5t12.5 27.5t-12.5 28t-30.5 12zM709 600q-17 0 -52 -16.5t-75.5 -32.5t-71 -16t-71.5 16t-76 32.5t-50 16.5q-111 0 -184 -132q-65 -117 -67 -260q-2 -136 55 -185q24 -21 55 -21q37 0 64 9t44.5 24
t32 33t31 37t36.5 35t53.5 28t76.5 16q50 -5 93.5 -25.5t73 -46t57 -50t56 -41.5t58.5 -17q72 0 99 99q29 107 -8 247q-40 153 -129 216q-47 34 -101 34zM848 68q-29 0 -60 16.5t-59.5 41t-59.5 48.5t-72.5 40.5t-86.5 16.5q-40 0 -73 -10t-55.5 -25.5t-41.5 -35t-36 -38.5
t-35 -35t-42.5 -26t-53.5 -10q-39 0 -52 88q-17 111 18 232q43 145 134 174q19 6 40 6q13 0 87.5 -32t109.5 -32t108.5 32t89.5 32q93 0 149 -130q47 -109 43 -234q-3 -103 -42 -118q-5 -1 -10 -1zM695 457q-18 0 -30.5 -11.5t-12.5 -28t12.5 -28t30.5 -11.5t31 11.5t13 28
t-13 28t-31 11.5zM741 313q0 -16 12.5 -27.5t30.5 -11.5t30.5 11.5t12.5 27.5t-12.5 28t-30.5 12t-30.5 -12t-12.5 -28zM313 437q-37 0 -63.5 -24t-26.5 -58t26.5 -58t63.5 -24t63.5 24t26.5 58t-26.5 58t-63.5 24z" />
    <glyph glyph-name="uniE67B" unicode="&#xe67b;" 
d="M511 302h-222v-56h278v334h-56v-278zM511.5 747q-90.5 0 -173 -35.5t-142 -95t-95 -142t-35.5 -173t35.5 -173t95 -142t142 -95t173 -35.5t173 35.5t142 95t95 142t35.5 173t-35.5 173t-95 142t-142 95t-173 35.5zM511.5 -91q-106.5 0 -197 52.5t-143 143t-52.5 197
t52.5 197t143 143t197 52.5t197 -52.5t143 -143t52.5 -197t-52.5 -197t-143 -143t-197 -52.5z" />
    <glyph glyph-name="uniE67C" unicode="&#xe67c;" 
d="M755 267h-81v-81h-81v-81h-81v-81h-81v-81h-81v81h81v81h81v81h81v81h81v81h-81v81h81v-81h81v-81zM269 -138v81h81v-81h-81zM512 510h-81v81h81v-81h81v-81h-81v81zM350 672h81v-81h-81v81zM269 753h81v-81h-81v81z" />
    <glyph glyph-name="uniE67D" unicode="&#xe67d;" 
d="M606 674q7 0 14 -1l169 -27q25 -3 45 -23.5t24 -44.5l27 -170q9 -59 -33 -101l-362 -362q-17 -17 -42 -17t-43 17l-249 249q-17 18 -17 42.5t17 42.5l362 361q15 15 40 24.5t48 9.5zM606 749q-39 0 -77.5 -15t-63.5 -41l-362 -361q-39 -40 -39 -95.5t39 -95.5l249 -249
q40 -39 96 -39t95 39l362 362q69 69 54 166l-27 170q-8 48 -45.5 85.5t-85.5 44.5l-170 27q-12 2 -25 2v0zM609 473q0 30 22 52t53 22t52.5 -22t22 -52.5t-21.5 -52.5t-53 -22t-53 22t-22 53zM609 473z" />
    <glyph glyph-name="uniE67E" unicode="&#xe67e;" 
d="M429 731q58 -140 -31 -271q-24 -35 -56.5 -71.5t-54.5 -57t-25 -19t-7.5 26.5t-6.5 57.5t1 62.5q6 44 2 44q-2 0 -8 -14q-2 -3 -3 -4q-2 -6 -26.5 -48.5t-44.5 -81t-40 -97t-24 -107.5q-11 -148 148 -251q49 -32 92 -48q-1 2 -3.5 4t-8.5 10t-11 17t-10 23.5t-7.5 30.5
t-1.5 37.5t7 44.5q10 39 23.5 66.5t24 38.5t25.5 24t21 20q29 33 25 103q2 -2 4.5 -5t9 -14.5t9.5 -25.5t6 -36.5t-2 -49.5q1 2 3.5 5.5t9.5 14t13.5 21.5t15.5 27t16 31.5t13 34t9.5 35t3 34t-4.5 32.5q-1 2 2 0q23 -15 66 -74q99 -136 92 -255q-4 -60 -13 -95t-26 -63.5
t-19 -35.5q5 2 13.5 5.5t34 15.5t49.5 26.5t54 38.5t53.5 51.5t43.5 66t27 79.5q19 105 -16.5 214.5t-107.5 177.5q-61 57 -65 58q-3 1 -2 -4q0 -4 14 -45q13 -41 13.5 -76t-4.5 -48.5t-11 -22.5q-1 -1 -2.5 2.5t-4.5 12t-7.5 20t-12.5 28.5t-17.5 35.5t-24 42t-31.5 47.5
q-51 72 -99 111t-84 52q-26 9 -27 5q0 -1 6 -14zM429 731z" />
    <glyph glyph-name="uniE67F" unicode="&#xe67f;" 
d="M242 329h120l-150 157l-149 -157h119v-240h479v60h-419v180zM841 269v239h-479v-59h419v-180h-120l150 -180l150 180h-120z" />
    <glyph glyph-name="uniE680" unicode="&#xe680;" 
d="M69 783v-775h886v775h-886zM899 284h-387v222h387v-222zM899 561h-442v-332h442v-166h-774v664h774v-166zM678 450h-111v-110h111v110z" />
    <glyph glyph-name="uniE681" unicode="&#xe681;" 
d="M510.5 831q-90.5 0 -173 -35.5t-142 -95t-95 -142t-35.5 -173t35.5 -173t95 -142t142 -95t173 -35.5t173 35.5t142 95t95 142t35.5 173t-35.5 173t-95 142t-142 95t-173 35.5zM510.5 -7q-106.5 0 -197 52.5t-143 143t-52.5 197t52.5 197t143 143t197 52.5t197 -52.5
t143 -143t52.5 -197t-52.5 -197t-143 -143t-197 -52.5zM622 608l-112 -111l-111 111h-111l167 -167h-167v-56h167v-55h-167v-56h167v-111h111v111h167v56h-167v55h167v56h-167l167 167h-111z" />
    <glyph glyph-name="uniE682" unicode="&#xe682;" 
d="M510.5 829q-90.5 0 -173 -35.5t-142.5 -95t-95 -142t-35 -173t35 -173t95 -142.5t142.5 -95t173 -35t173 35t142 95t95 142.5t35.5 173t-35.5 173t-95 142t-142 95t-173 35.5zM510.5 -7q-105.5 0 -195.5 52.5t-142 142t-52 195.5t52 196t142 142t195.5 52t195.5 -52
t142 -142t52 -196t-52 -195.5t-142 -142t-195.5 -52.5zM711 536q-16 14 -44 14t-46 -14t-18 -36q0 -9 4.5 -17t23 -27.5t18.5 -38.5q0 -24 -29.5 -59.5t-106.5 -92.5q2 174 -51 285l-174 -36v-15q13 2 21 2q16 0 26 -7q15 -9 24 -31q11 -30 20 -117q9 -88 9 -135
q0 -17 -1 -51h19q130 87 201 142q38 30 69 67q32 37 44.5 64t12.5 56q0 27 -22 47z" />
    <glyph glyph-name="uniE683" unicode="&#xe683;" 
d="M923 681l-89 -88l-118 118l89 88q12 12 29.5 12t29.5 -12l59 -59q12 -12 12 -29.5t-12 -29.5zM303 298l118 -117l-157 -40zM805 563l-354 -353l-118 118l354 353zM177 669v-617h616v380l95 94v-521q0 -17 -15 -32t-33 -15h-711q-17 0 -32 15t-15 32v711q0 17 15 32t32 15
h522l-95 -94h-379z" />
    <glyph glyph-name="uniE684" unicode="&#xe684;" 
d="M958 -34l-28 -28l-422 421l-421 -421l-28 28l421 421l-421 422l28 28l421 -422l422 422l28 -28l-422 -422z" />
    <glyph glyph-name="uniE685" unicode="&#xe685;" 
d="M910 584l-23 -18q42 -85 42 -181q0 -113 -56 -209.5t-152.5 -152.5t-210 -56t-210 56t-152 152.5t-55.5 210t55.5 209.5t152 152t210.5 56q93 0 176 -39t142 -107l22 16q-63 74 -151.5 116t-188.5 42q-91 0 -173.5 -35t-142.5 -95t-95 -142.5t-35 -173t35 -173.5
t95 -142.5t142.5 -95t173 -35.5t173 35.5t142.5 95t95 142.5t35 173q0 105 -46 199zM235 390l197 -197l19 20l-197 197zM767 567l-335 -334l19 -20l335 335z" />
    <glyph glyph-name="uniE686" unicode="&#xe686;" 
d="M912 583l-23 -17q42 -86 42 -182q0 -114 -56.5 -210.5t-153 -152.5t-210 -56t-210 56t-152.5 152.5t-56 210.5t56 210.5t152.5 152.5t210.5 56q94 0 177 -39t141 -108l23 17q-63 74 -152 116t-189 42q-91 0 -174 -35.5t-142.5 -95.5t-95 -142.5t-35.5 -173.5t35.5 -173.5
t95 -142.5t142.5 -95.5t174 -35.5t173.5 35.5t142.5 95.5t95 142.5t35 173.5q0 105 -46 199zM540 607h-56v-335h56v335zM484 161h56v55h-56v-55z" />
    <glyph glyph-name="uniE687" unicode="&#xe687;" 
d="M513 493h-56v-225h56v225zM906 156h-112v112h112v56h-112v113h112v56l-168 -1l-1 -392l169 -1v57zM8 717v-842h1010v842h-1010zM962 -69h-898v730h898v-730zM681 493h-56v-225h56v225zM625 100v168h-112v-168h112zM288 156h-112v337l-57 -1v-393l169 1v56zM401 493h-56
v-393h56v393z" />
    <glyph glyph-name="uniE688" unicode="&#xe688;" 
d="M511 636h-55v-220h55v220zM896 306h-110v110h110v55h-110v110h110v55h-165v-386h165v56zM15 856v-826h992v826h-992zM951 85h-881v716h881v-716zM676 636h-55v-220h55v220zM621 250v166h-110v-166h110zM290 306h-110v330h-55v-386h165v56zM401 636h-56v-386h56v386z" />
  </font>
</defs>
</svg>
